<svg width="4094" height="2925" viewBox="0 0 4094 2925" fill="none" xmlns="http://www.w3.org/2000/svg">
<path fill-rule="evenodd" clip-rule="evenodd" d="M2692.75 1.08004C2688.58 3.50704 2686.7 12.059 2689.15 17.439C2691.63 22.879 2700.25 25.031 2705.58 21.54C2711.5 17.663 2712.4 8.11504 2707.35 2.84404C2705.05 0.440043 2703.84 0.00504334 2699.56 0.0300433C2696.78 0.0470433 2693.71 0.519043 2692.75 1.08004ZM887.327 46.696C881.903 47.752 878.021 55.268 879.477 61.895C881.466 70.95 895.581 73.058 900.335 65.01C904.259 58.367 901.094 48.953 894.302 47.067C892.211 46.486 890.275 46.07 890 46.142C889.725 46.214 888.522 46.463 887.327 46.696ZM472.241 92.325C466.768 95.365 464.833 104.044 468.411 109.505C472.365 115.539 481.9 116.284 486.421 110.912C493.292 102.745 488.66 90.949 478.615 91.035C476.352 91.055 473.484 91.635 472.241 92.325ZM1384.91 129.904C1376.84 132.51 1372.51 139.552 1373.19 148.958C1373.93 159.142 1380.36 165 1390.82 165C1396.53 165 1401.18 162.335 1404.81 156.976C1406.85 153.976 1407.12 152.54 1406.83 146.496C1406.45 138.651 1404.07 134.12 1398.94 131.468C1395.3 129.586 1388.31 128.807 1384.91 129.904ZM3197.09 135.964C3190.44 137.039 3187 141.337 3187 148.565C3187 155.055 3188.58 158.542 3193.44 162.809C3204.26 172.315 3221.99 166.845 3221.99 154C3221.99 149.824 3219.68 145.793 3213.74 139.59C3208.99 134.63 3207.43 134.291 3197.09 135.964ZM2112 139.125C2084.77 139.563 2022.22 140.378 1973 140.935C1881.83 141.966 1869.04 142.524 1846 146.481C1812.35 152.259 1784.25 164.593 1760.5 184.016C1729.83 209.094 1707.76 236.188 1665.46 300.694C1653.63 318.737 1639.39 340.064 1633.82 348.086L1623.7 362.672L1533.1 363.336C1483.27 363.7 1401.13 363.999 1350.58 363.999L1258.65 364L1261.06 361.431C1263.04 359.323 1263.6 357.393 1264.16 350.681C1265.39 335.893 1265.12 286.121 1263.78 281.616C1263.04 279.122 1260.72 275.658 1257.9 272.825C1251.58 266.475 1246.62 265.124 1225.5 263.994C1216.15 263.494 1200.62 262.617 1191 262.046C1131.8 258.533 1073.75 255.808 1031 254.533C1020.27 254.214 998 253.499 981.5 252.945C938.517 251.502 860.711 251.503 853.757 252.947C841.165 255.561 835.082 263.072 832.593 279.083C830.143 294.843 825.035 353.803 825.01 366.609L825 371.719L813.25 374.47C787.012 380.613 762.802 390.383 745.5 401.809C736.281 407.896 720.561 423.607 714.281 433.008C685.931 475.448 679.196 526.439 668.516 779.5C662.53 921.319 661.497 969.074 661.538 1102C661.58 1236.62 662.551 1273.52 666.244 1280.96C669.257 1287.02 675.15 1290.34 682.916 1290.33C689.541 1290.32 693.939 1288.3 697.171 1283.77C699.873 1279.98 699.944 1275.96 698.063 1233C695.337 1170.75 695.784 1030.9 699.012 936.5C699.538 921.1 700.43 893.65 700.993 875.5C702.64 822.447 704.921 761.181 705.589 752.089L706.206 743.678L777.853 744.328C817.259 744.685 900.575 745.869 963 746.959C1145.71 750.149 1270.17 751.299 1356.5 750.596C1454.5 749.797 1552.34 747.647 1594.44 745.367L1606.37 744.721L1604.44 747.268C1588.84 767.8 1584.04 774.381 1576.92 785C1521.3 867.996 1485.02 972.922 1470.1 1094C1466.63 1122.16 1463 1164.19 1463 1176.24C1463 1179.96 1462.66 1183 1462.25 1182.99C1461.84 1182.99 1448.05 1185.5 1431.61 1188.58C1409.49 1192.72 1401.53 1193.87 1400.99 1192.99C1399.58 1190.7 1399.05 1179.99 1399.99 1172.61C1402.01 1156.69 1407.58 1145.29 1418.93 1133.91C1428.21 1124.6 1439 1118.84 1452.14 1116.18C1456.88 1115.22 1461.5 1113.83 1462.39 1113.09C1464.41 1111.41 1464.49 1105.65 1462.51 1104.01C1458.93 1101.03 1436.87 1106.92 1424.77 1114.08C1407.82 1124.12 1394.49 1141.75 1389.6 1160.63C1387.49 1168.77 1386.65 1182.13 1387.77 1189.84C1388.42 1194.3 1388.37 1196.3 1387.6 1196.57C1380.76 1199.03 1098.9 1245.87 1003.5 1260.41C980.765 1263.87 919.976 1272.04 888 1275.93C795.763 1287.15 715.372 1292.26 631 1292.27C531.245 1292.28 464.697 1286.29 361 1267.94C315.983 1259.97 278.313 1248.78 250.5 1235.11C231.036 1225.54 221.615 1219.34 210.294 1208.66C176.924 1177.15 167.625 1137.64 186.179 1106.2C190.222 1099.35 203.826 1084.93 214 1076.71C255.429 1043.22 324.806 1017.7 404.5 1006.62C451.388 1000.1 480.17 998.759 564.578 999.172L631.656 999.5L636.523 996.491C651.027 987.525 649.979 962.739 634.763 954.841C630.898 952.835 628.308 952.546 607 951.743C573.603 950.484 476.963 951.515 454 953.375C415.175 956.52 396.57 958.918 367.143 964.568C317.386 974.121 278.275 986.933 237.5 1007.04C186.474 1032.19 155.7 1058.68 139.129 1091.71C126.287 1117.3 124.61 1149.15 134.541 1178.83C150.192 1225.6 189.559 1263.34 246.192 1285.86C272.771 1296.43 295.042 1302.75 332.811 1310.44C404.775 1325.09 472.346 1333.64 552 1338.17C579.529 1339.73 672.316 1339.72 703 1338.15C822.759 1332.03 915.877 1321.32 1113.44 1290.93C1211.92 1275.78 1292.35 1262.38 1392.5 1244.43C1561.13 1214.22 1710.14 1177.6 1913 1116.52C1926.48 1112.46 1955.05 1103.91 1976.5 1097.51C1997.95 1091.1 2025.85 1082.77 2038.5 1078.99C2129.4 1051.82 2224.45 1025.76 2299.5 1007.42C2343.13 996.762 2429.27 976.888 2459.13 970.59C2468.13 968.691 2484.95 965.055 2496.5 962.511C2528.54 955.453 2621.63 935.997 2721.5 915.487C2741.3 911.42 2773.48 904.74 2793 900.641C2812.52 896.542 2849.2 888.878 2874.5 883.609C2899.8 878.341 2943 869.344 2970.5 863.616C3227.3 810.127 3253.19 805.029 3311 796.553C3462.17 774.387 3581.52 775.282 3706.23 799.515C3717.02 801.613 3719.72 801.824 3724.02 800.902C3743.33 796.762 3750.6 768.708 3735.04 758.411C3730.47 755.385 3704.64 750.298 3664.5 744.515C3607 736.232 3567.92 733.61 3501 733.548C3418.33 733.472 3372.24 737.426 3279 752.59C3214.97 763.003 3106.85 784.493 3012.72 805.513C3001.67 807.981 2991.78 810 2990.75 810C2988.95 810 2988.89 809.182 2989.53 791.25C2991.28 742.514 2984.87 626.705 2976.43 554.5C2970.54 504.104 2962.39 457.92 2954.44 429.839C2941.97 385.82 2918.62 366.046 2874.5 362.136C2867.58 361.523 2804.3 361.373 2703.97 361.732L2544.44 362.303L2507.88 309.402C2487.78 280.306 2466.02 248.625 2459.53 239C2441.71 212.59 2430.41 198.414 2416.87 185.45C2387.99 157.818 2352.54 143.907 2298.5 139C2285.98 137.863 2186.26 137.93 2112 139.125ZM2284.64 161.035C2348.9 164.759 2384.96 181.262 2417.74 221.953C2422.37 227.702 2432.05 241.202 2439.25 251.953C2446.46 262.704 2466.03 291.233 2482.75 315.352C2499.46 339.47 2513.35 359.758 2513.61 360.436C2514.18 361.906 2244.19 362.999 1880.36 363H1653.22L1681.46 320.668C1721.14 261.196 1735.21 242.613 1758.32 219.13C1785.19 191.841 1811.91 176.693 1844.07 170.529C1865.41 166.438 1876.23 165.945 1964.72 165.025C2078.31 163.844 2198.57 162.005 2223.5 161.067C2254.12 159.916 2265.23 159.91 2284.64 161.035ZM1933.75 255.7C1931.45 258.277 1931.51 263.513 1933.88 265.881C1936.19 268.189 1938 268.279 2037.5 271.028C2077.1 272.122 2122.77 273.413 2139 273.897C2166.3 274.711 2168.69 274.646 2171 273.03C2172.92 271.69 2173.5 270.404 2173.5 267.5C2173.5 259.877 2179.98 260.522 2074 257.592C2022.03 256.154 1969.6 254.701 1957.5 254.361C1936.5 253.772 1935.42 253.833 1933.75 255.7ZM898.716 275.994L906.933 276L905.044 279.25C900.283 287.442 899.5 293.056 899.5 319C899.5 346.232 900.517 352.881 905.857 360.549L908.676 364.599L883.088 365.895C869.015 366.608 855.473 367.409 852.995 367.677L848.489 368.162L851.676 333.331C853.429 314.174 854.919 296.025 854.988 293C855.15 285.869 856.85 281.169 860.152 278.722C863.499 276.241 872.194 275.011 882.5 275.561C886.9 275.796 894.197 275.991 898.716 275.994ZM947.177 276.651C956.708 277.282 956.835 277.324 955.521 279.396C953.403 282.738 950.108 297.567 948.944 308.994C947.729 320.925 948.857 335.252 951.955 347.259C955.011 359.102 955.594 360.18 958.75 359.816C961.098 359.546 961.484 359.061 961.393 356.5C961.334 354.85 960.234 349.9 958.949 345.5C956.873 338.392 956.613 335.438 956.613 319C956.613 302.458 956.864 299.653 958.982 292.5C960.285 288.1 961.384 282.813 961.425 280.75L961.5 277L971 277.012C981.19 277.026 1030.16 278.49 1056.69 279.575L1072.87 280.237L1073.19 290.369C1073.83 311.235 1071.41 347.271 1068.43 361.25L1067.84 364H1034.89C1009.42 364 1001.84 363.716 1001.51 362.75C1000.18 358.926 997.861 338.623 997.357 326.5C996.913 315.853 997.2 309.506 998.556 300C999.536 293.125 1000.37 285.7 1000.42 283.5C1000.5 279.716 1000.34 279.5 997.541 279.5C994.727 279.5 994.522 279.794 993.358 285.5C989.52 304.319 989.204 330.148 992.538 352.603C993.405 358.442 993.87 363.464 993.57 363.763C993.271 364.063 976.383 364.526 956.041 364.793L919.056 365.278L918.046 362.621C917.49 361.16 915.924 359.542 914.566 359.025C911.418 357.828 909.231 353.573 907.442 345.164C902.656 322.662 906.162 286.439 913.625 281.271C915.033 280.297 916.917 278.712 917.814 277.75C919.631 275.8 929.016 275.448 947.177 276.651ZM1109.09 282.062C1110.57 282.839 1112.37 288.356 1115.11 300.5C1115.73 303.25 1116.24 310.9 1116.24 317.5C1116.25 327.708 1115.86 330.695 1113.65 337.5C1112.22 341.9 1109.43 347.892 1107.45 350.817C1103.99 355.945 1103.91 356.222 1105.49 358.629C1106.39 360.001 1107.66 360.961 1108.31 360.761C1110.78 360.005 1117.92 347.517 1120.66 339.177C1123.24 331.289 1123.5 329.227 1123.47 316.5C1123.45 305.086 1123.01 300.837 1121.09 293.5C1119.8 288.55 1118.53 283.929 1118.26 283.23C1117.87 282.223 1120.74 282.086 1132.14 282.568L1146.5 283.176L1149.69 286.687C1156.31 293.968 1161.89 316.251 1160.55 330.069C1159.37 342.243 1155.27 353.52 1150.33 358.16C1149.05 359.364 1148 361.17 1148 362.174C1148 363.908 1146.19 364 1112 364H1076L1076.02 361.75C1076.03 360.512 1076.96 352.75 1078.09 344.5C1079.53 334.017 1080.27 322.121 1080.56 305C1080.79 291.525 1080.98 280.483 1080.99 280.463C1081.15 279.957 1107.99 281.484 1109.09 282.062ZM1033.93 284.58C1032.85 285.886 1032.92 292.424 1034.32 322.184C1035.25 341.997 1036.26 358.611 1036.56 359.104C1037.49 360.6 1042.02 360.105 1042.66 358.438C1043.73 355.66 1040.21 285.961 1038.93 284.413C1037.39 282.561 1035.56 282.622 1033.93 284.58ZM1185.71 285.605L1195.93 286.253L1196.9 289.376C1199.3 297.118 1200.34 305.388 1200.29 316.5C1200.23 330.572 1198.37 340.364 1193.91 350.049C1190.45 357.549 1190.59 360 1194.48 360C1199.46 360 1204.5 347.986 1205.9 332.772C1206.81 322.889 1205.95 298.408 1204.38 289.599L1203.69 285.698L1218.71 286.231C1228.42 286.575 1234.75 287.253 1236.62 288.145C1241.6 290.531 1241.93 293.424 1240.97 325.898C1240.09 355.641 1240.3 358.469 1243.72 362.248C1245.23 363.915 1243.13 364 1200.53 364H1155.76L1157.41 361.75C1160.89 357.027 1165.1 347.022 1166.62 339.906C1169.75 325.258 1166.98 302.791 1160.47 289.945C1159.11 287.262 1158 284.768 1158 284.404C1158 284.04 1161.94 284.016 1166.75 284.35C1171.56 284.684 1180.1 285.249 1185.71 285.605ZM2954.24 295.325C2949.25 298.095 2947.03 304.771 2949.3 310.146C2951.58 315.53 2954.5 317.5 2960.19 317.5C2964.55 317.5 2965.53 317.094 2968.08 314.234C2972.98 308.748 2971.77 298.483 2965.85 295.425C2962.49 293.684 2957.28 293.639 2954.24 295.325ZM2822 396.998C2879.03 397.951 2881.98 398.255 2894.67 404.503C2906.7 410.422 2915.19 422.082 2919.8 439C2928.64 471.48 2941.91 561.942 2947.45 627.5C2949.21 648.313 2952 688.839 2952 693.58V696.815L2885.25 696.932C2848.54 696.996 2792.17 697.54 2760 698.142C2727.83 698.743 2649.97 699.308 2587 699.397C2496.8 699.524 2472.02 699.827 2470.23 700.823C2468.12 702.001 2467.19 701.401 2456.73 692.176C2388.61 632.07 2293.02 592.801 2170.5 574.597C2094.64 563.326 2018.22 561.604 1948 569.581C1860.85 579.483 1779.17 607.354 1713.57 649.582C1705.95 654.487 1698.95 658.371 1698.01 658.213C1693.16 657.396 1659.6 667.251 1637.44 676.002C1622.74 681.804 1599.07 693.45 1596.95 695.92C1595.55 697.554 1592.04 697.833 1559.95 698.869C1442.24 702.67 1245.82 703.626 1087.5 701.168C1044.05 700.494 968.225 699.296 919 698.506C869.775 697.715 802.163 696.765 768.75 696.393C713.873 695.782 708 695.561 708.005 694.108C708.025 687.724 712.316 622.972 716.065 572.5C721.918 493.689 729.259 467.852 752.468 444.375C776.071 420.499 810.04 408.049 867.143 402.347C887.143 400.35 852.95 400.475 1807.5 398.917C2201.85 398.274 2561.17 397.432 2606 397.046C2723.32 396.037 2763.96 396.028 2822 396.998ZM3292.99 433.885C3286.01 436.146 3279.79 441.4 3276.61 447.7C3274.4 452.092 3274.53 462.375 3276.87 467.5C3279.3 472.844 3285.9 478.626 3291.18 480.049C3298.61 482.049 3308.65 479.364 3313.41 474.106C3314.78 472.587 3316.51 472 3319.61 472C3325.32 472 3328.61 470.368 3331.13 466.29C3332.71 463.736 3333.06 462.029 3332.57 459.212C3332.22 457.17 3331.57 452.35 3331.14 448.5C3329.88 437.311 3326.33 433.849 3316.28 434.016C3313.1 434.068 3307.12 433.878 3303 433.592C3298.88 433.306 3294.37 433.438 3292.99 433.885ZM297.763 466.565C292.477 469.434 290.472 477.145 293.494 482.989C295.633 487.126 298.818 489 303.707 489C309.759 489 314.01 485.091 314.71 478.883C315.871 468.577 306.546 461.799 297.763 466.565ZM844 473C844 473.662 890.167 474 980.5 474C1070.83 474 1117 473.662 1117 473C1117 472.338 1070.83 472 980.5 472C890.167 472 844 472.338 844 473ZM2616 483.5C2616 484.826 2631.94 485 2753.5 485C2875.06 485 2891 484.826 2891 483.5C2891 482.174 2875.06 482 2753.5 482C2631.94 482 2616 482.174 2616 483.5ZM783.673 505.66C783.303 506.031 783 506.708 783 507.167C783 507.625 817.688 508 860.083 508C921.306 508 937.081 507.743 936.75 506.75C936.423 505.768 920.062 505.445 860.34 505.244C818.543 505.103 784.043 505.29 783.673 505.66ZM2737 537.5C2737 538.82 2746.06 539 2812.5 539C2878.94 539 2888 538.82 2888 537.5C2888 536.18 2878.94 536 2812.5 536C2746.06 536 2737 536.18 2737 537.5ZM850 541.125C838.175 541.558 811.207 541.835 790.071 541.743C758.55 541.604 751.561 541.817 751.191 542.926C750.814 544.058 761.397 544.17 816.12 543.61C881.396 542.942 891 542.594 891 540.899C891 539.904 882.058 539.953 850 541.125ZM424.763 555.565C418.979 558.704 417.298 567.173 421.284 573.102C425.609 579.537 435.385 579.52 439.732 573.07C446.847 562.512 435.789 549.582 424.763 555.565ZM2578 582C2578 582.644 2588.5 583 2607.5 583C2626.5 583 2637 582.644 2637 582C2637 581.356 2626.5 581 2607.5 581C2588.5 581 2578 581.356 2578 582ZM2070 613.014C2150.82 616.803 2230.23 630.848 2289.5 651.831C2311.73 659.702 2323.18 664.505 2343.5 674.486C2409.22 706.77 2458.45 750.646 2495.5 809.972C2503.47 822.737 2518.54 850.588 2524.74 864C2531.99 879.694 2542 902.319 2542 903.003C2542 903.396 2533.11 905.623 2522.25 907.954C2511.39 910.285 2481.2 916.91 2455.16 922.676C2429.13 928.443 2407.71 933.013 2407.57 932.831C2407.43 932.649 2406.23 930.539 2404.91 928.142C2403.21 925.05 2398.88 920.949 2390 914.016C2375.29 902.524 2363.32 892.638 2340.96 873.527C2283.51 824.431 2252.27 803.709 2210.47 786.959C2142.29 759.645 2039.84 752.428 1956.5 769.066C1875.46 785.245 1816.43 817.017 1759.43 875.134C1693.98 941.867 1647.95 1026.87 1630.55 1113.13C1627.28 1129.32 1627.32 1132.37 1630.88 1139.44C1632.73 1143.1 1633.36 1145.29 1632.63 1145.52C1629.05 1146.7 1554.33 1163.72 1536.13 1167.51C1524.23 1169.99 1513.65 1172.21 1512.61 1172.45C1510.82 1172.86 1510.76 1172.33 1511.41 1161.69C1517.91 1055.63 1540.46 960.203 1578.02 879.833C1601.67 829.235 1630.11 787.39 1665.49 751.118C1700.65 715.084 1735.03 689.932 1780.5 666.988C1810.93 651.631 1836.44 641.81 1870 632.525C1928.45 616.353 1997.52 609.615 2070 613.014ZM3286.75 619.08C3283.99 620.688 3282 625.491 3282 630.549C3282 634.46 3282.49 635.658 3285.11 638.099C3289.03 641.762 3296.23 642.182 3300.29 638.984C3305.97 634.515 3306 624.505 3300.34 620.054C3297.49 617.807 3289.87 617.261 3286.75 619.08ZM1669.26 681.681C1665.54 684.805 1658.52 690.965 1653.66 695.37C1647.35 701.084 1644.46 703.109 1643.55 702.439C1638.56 698.749 1636.81 697.912 1632.34 697.065C1629.57 696.539 1626.33 696.362 1625.15 696.671C1623.97 696.98 1623 696.773 1623 696.212C1623 694.264 1669.64 676.065 1674.76 676.013C1675.46 676.006 1672.98 678.556 1669.26 681.681ZM293.313 688.127C288.717 689.421 286 693.35 286 698.701C286 706.863 289.764 710.943 297.327 710.978C301.317 710.996 302.648 710.506 305.003 708.15C313.946 699.208 305.476 684.702 293.313 688.127ZM2953.76 774C2953.9 790.225 2953.67 806.872 2953.26 810.993L2952.5 818.486L2937.5 821.713C2918.69 825.759 2856.18 838.703 2784 853.497C2680.51 874.709 2650.56 880.881 2621.7 886.947C2605.86 890.276 2592.14 892.994 2591.2 892.987C2590.02 892.978 2588.45 890.459 2586.07 884.737C2567.29 839.637 2537.48 786.019 2513.9 754.902L2508.14 747.304L2640.32 746.528C2713.02 746.102 2790.95 745.45 2813.5 745.08C2836.05 744.711 2876.77 744.429 2904 744.454L2953.5 744.5L2953.76 774ZM2099 809.977C2136.61 813.623 2166.89 820.68 2197.27 832.876C2228.82 845.544 2261.14 867.705 2317.01 914.986C2327.75 924.069 2340.26 934.593 2344.81 938.373C2349.36 942.153 2352.89 945.447 2352.64 945.694C2352.39 945.941 2341.91 948.554 2329.35 951.501C2292.37 960.174 2206.87 981.528 2192.87 985.587C2191.6 985.955 2191.09 985.098 2190.58 981.712C2187.66 962.238 2166.08 944.592 2141.38 941.492C2120.59 938.88 2098.47 956.091 2096.39 976.5C2095.28 987.362 2100.39 998.758 2108.75 1004.06C2111.14 1005.58 2112.74 1007.04 2112.3 1007.3C2111.86 1007.57 2106.32 1009.21 2100 1010.95C2080.27 1016.38 1990.27 1043.11 1926.5 1062.48C1812.97 1096.96 1677.26 1135.6 1675.58 1133.91C1675.35 1133.68 1675.99 1129.42 1677.01 1124.45C1694.03 1041.46 1737.59 961.187 1796.62 903.996C1856.97 845.533 1925.3 815.954 2016 809.026C2030.66 807.906 2083.94 808.517 2099 809.977ZM992.427 894.309C986.762 899.182 988.657 910.748 995.706 914.318C998.855 915.914 1013.95 917.888 1050.5 921.485C1109.1 927.253 1142.04 928.996 1205.72 929.699L1256.94 930.265L1260.47 926.732C1263.43 923.77 1264 922.498 1264 918.85C1263.99 912.828 1261.1 908.399 1256.3 907.067C1253.98 906.421 1239.21 906.009 1218.28 906.006C1154.92 905.995 1083.79 901.738 1017.08 893.964C996.132 891.523 995.658 891.53 992.427 894.309ZM1833.93 932.842C1832.56 933.917 1829.01 938.203 1826.03 942.368C1822.99 946.621 1819.49 950.353 1818.06 950.883C1815.13 951.964 1791.18 974.533 1776.77 989.795C1753.15 1014.81 1734.81 1045.51 1728.4 1070.8C1723.89 1088.58 1726.16 1097.98 1736.21 1103.11C1750.37 1110.34 1761.56 1098.08 1773.87 1061.85C1780.11 1043.46 1783.14 1036.57 1793.77 1016.54C1806.86 991.889 1820.16 970.714 1835.87 949.541C1840.34 943.514 1844 937.606 1844 936.414C1844 931.986 1837.81 929.79 1833.93 932.842ZM1860.45 969.081C1860.08 969.676 1858.56 970.913 1857.06 971.831C1850.14 976.071 1830.26 1001.42 1822.97 1015.27C1814.03 1032.29 1810.01 1052.64 1813.34 1064.09C1815.34 1070.96 1818.52 1074.08 1824.19 1074.72C1829.87 1075.36 1831.38 1073.56 1832.83 1064.43C1835.61 1047.01 1841.04 1032.89 1858.05 998.895C1864.57 985.872 1869 975.823 1869 974.065C1869 969.687 1862.44 965.862 1860.45 969.081ZM2146.84 979.92C2152.28 982.696 2154.23 985.381 2154.75 990.797L2155.22 995.614L2144.86 998.429C2139.16 999.977 2133.75 1001.46 2132.84 1001.72C2131.45 1002.11 2131.57 1001.41 2133.59 997.424C2136.38 991.913 2136.68 986.211 2134.41 981.818C2133.09 979.266 2133.04 978.579 2134.16 977.832C2135.99 976.6 2142.41 977.656 2146.84 979.92ZM1790.87 996.868C1787.32 1003 1786.41 1003.95 1784.61 1003.4C1783.45 1003.04 1782.3 1002.57 1782.06 1002.35C1781.81 1002.13 1784.49 999.045 1788 995.5C1791.51 991.955 1794.53 989.198 1794.71 989.373C1794.88 989.548 1793.16 992.921 1790.87 996.868ZM987 1007.18C973.398 1014.19 975.963 1035.86 990.885 1040.01C992.873 1040.56 1026.59 1042.14 1065.8 1043.53C1136.07 1046.01 1137.16 1046.02 1141.39 1044.15C1151.38 1039.73 1153.93 1025.01 1146.27 1015.91C1141.13 1009.8 1147.44 1010.36 1047 1007C1030.77 1006.45 1011.65 1005.75 1004.5 1005.44C992.266 1004.9 991.235 1005 987 1007.18ZM1766.51 1027.25C1755.18 1049.91 1743 1080.78 1743 1086.81C1743 1088.94 1742.8 1089.07 1741.39 1087.91C1738.67 1085.65 1738.23 1082.79 1739.65 1076.68C1743.08 1061.99 1753.01 1040.51 1763.6 1024.92C1767.16 1019.67 1773.88 1011 1774.38 1011C1774.52 1011 1770.97 1018.31 1766.51 1027.25ZM3407.5 1016.56C3347.55 1017.23 3291.57 1017.84 3283.1 1017.89L3267.7 1018L3268.33 1079.25C3268.68 1112.94 3269.94 1246.7 3271.14 1376.5C3272.33 1506.3 3273.57 1612.8 3273.9 1613.16C3274.58 1613.9 3609.65 1610.74 3610.25 1609.99C3610.46 1609.72 3610.38 1588.59 3610.07 1563.03L3609.5 1516.56L3572 1516.83C3551.38 1516.99 3496.95 1517.52 3451.05 1518.02C3405.15 1518.52 3367.35 1518.68 3367.05 1518.38C3366.44 1517.77 3364.58 1336.09 3365.18 1335.49C3365.47 1335.19 3573 1333.01 3601.91 1333L3608.33 1333L3607.67 1286.34C3607.32 1260.68 3606.79 1239.46 3606.52 1239.18C3606.24 1238.9 3551.73 1239.22 3485.39 1239.89C3419.06 1240.56 3364.63 1240.97 3364.46 1240.79C3364.28 1240.62 3363.82 1211.62 3363.42 1176.36L3362.7 1112.24L3413.1 1111.63C3440.82 1111.29 3495.45 1110.74 3534.5 1110.41C3573.55 1110.07 3605.65 1109.66 3605.83 1109.49C3606.01 1109.32 3605.83 1087.99 3605.43 1062.09L3604.7 1015L3560.6 1015.16C3536.35 1015.25 3467.45 1015.88 3407.5 1016.56ZM3741.5 1035.16C3739.85 1035.76 3737.71 1036.95 3736.75 1037.79C3734.29 1039.93 3734.43 1046.18 3736.99 1048.49C3738.81 1050.14 3739.59 1050.18 3746.53 1048.99C3760.1 1046.67 3769.82 1050.65 3777.57 1061.7C3780.6 1066 3782.36 1067.58 3784.39 1067.82C3787.86 1068.23 3791.79 1065.7 3792.58 1062.54C3794.17 1056.21 3783.04 1043.26 3771.26 1037.73C3765.27 1034.92 3763.35 1034.52 3754.5 1034.3C3748.98 1034.16 3743.16 1034.54 3741.5 1035.16ZM2965 1050.01C2961.97 1050.43 2941.95 1052.92 2920.5 1055.53C2899.05 1058.15 2881.14 1060.6 2880.71 1060.98C2879.86 1061.73 2881.15 1072.87 2894.97 1184.4C2899.89 1224.05 2908.68 1295.2 2914.52 1342.5C2920.36 1389.8 2929.34 1462.47 2934.47 1504C2939.6 1545.53 2945.75 1595.39 2948.13 1614.81C2950.51 1634.23 2952.69 1650.51 2952.98 1650.97C2953.27 1651.44 2978.7 1648.71 3009.5 1644.9C3040.3 1641.09 3099.92 1633.72 3142 1628.51C3184.08 1623.3 3221.49 1618.75 3225.15 1618.39C3228.8 1618.04 3232.23 1617.46 3232.75 1617.12C3233.72 1616.5 3222.82 1525.49 3221.65 1524.32C3221.33 1524 3189.89 1527.62 3151.78 1532.36C3046.7 1545.44 3035.54 1546.78 3035.06 1546.35C3034.62 1545.95 3030.42 1512.61 3012.03 1363.5C3006.47 1318.4 2997.67 1247.3 2992.49 1205.5C2987.31 1163.7 2981.03 1112.4 2978.52 1091.5C2973.4 1048.81 2973.43 1048.95 2971.73 1049.12C2971.05 1049.19 2968.03 1049.59 2965 1050.01ZM486.051 1063.08C473.642 1064.48 453.429 1068.76 447.809 1071.18C439.549 1074.73 433.991 1083.16 434.006 1092.12C434.021 1101.5 439.626 1110.99 447.26 1114.54C453.819 1117.59 456.412 1117.6 468.985 1114.55C484.171 1110.87 497.376 1109.65 515.5 1110.24C526.218 1110.59 532.577 1110.39 534.761 1109.62C543.651 1106.51 550 1096.93 550 1086.62C550 1075.57 543.971 1067.89 532.586 1064.44C526.289 1062.52 498.205 1061.7 486.051 1063.08ZM3737.7 1092.11C3735.02 1093.67 3733.9 1097.43 3735.1 1100.87C3735.92 1103.22 3737.82 1104.64 3744.54 1107.91C3753.84 1112.43 3755.52 1112.73 3758.78 1110.44C3761.59 1108.47 3761.88 1102.08 3759.25 1099.77C3756.65 1097.47 3743.32 1091 3741.27 1091.03C3740.3 1091.05 3738.69 1091.53 3737.7 1092.11ZM326.591 1101.5C293.544 1106.19 265.424 1121.85 255.936 1140.84C249.636 1153.46 254.144 1166.42 267.081 1172.88C278.353 1178.52 289.259 1175.95 296.427 1165.97C299.367 1161.88 301.471 1160.33 309.223 1156.59C319.827 1151.48 326.83 1149.49 339.227 1148.09C349.115 1146.96 350.995 1146.2 356.231 1141.2C366.984 1130.92 364.567 1109.77 351.894 1103.25C346.014 1100.22 339.004 1099.74 326.591 1101.5ZM2541.09 1120.61C2517.77 1125.21 2498.45 1129.22 2498.16 1129.51C2497.64 1130.02 2501.55 1150.94 2519.99 1246.5C2536.21 1330.55 2542.1 1361.11 2550.5 1405C2564.98 1480.66 2583.1 1574.75 2598.45 1654C2604.26 1683.98 2609.01 1709.18 2609.02 1710C2609.06 1714.49 2609.13 1714.48 2652.11 1706.14C2674.88 1701.72 2716.9 1693.61 2745.5 1688.11C2774.1 1682.61 2815.27 1674.68 2837 1670.48C2858.73 1666.29 2879.11 1662.38 2882.3 1661.81C2887.87 1660.81 2888.09 1660.66 2887.55 1658.13C2887.24 1656.69 2884.76 1643.8 2882.03 1629.5C2873.46 1584.64 2870.36 1569.02 2869.91 1568.58C2869.67 1568.34 2866.33 1568.81 2862.49 1569.61C2858.65 1570.42 2830.75 1575.83 2800.5 1581.63C2770.25 1587.44 2732 1594.78 2715.5 1597.96C2688.71 1603.12 2685.42 1603.57 2684.78 1602.12C2684.09 1600.58 2680.6 1582.72 2657.1 1460.5C2651.6 1431.9 2644.79 1396.57 2641.98 1382C2639.16 1367.43 2633.55 1338.17 2629.5 1317C2616.14 1247.07 2591.05 1117.21 2590.33 1114.25C2589.9 1112.47 2589.12 1112.02 2586.64 1112.12C2584.91 1112.18 2564.42 1116 2541.09 1120.61ZM3726.89 1186.18C3723.7 1187.27 3721.59 1191.37 3722.94 1193.89C3724.71 1197.2 3745.68 1213.72 3762.22 1224.83C3766.47 1227.69 3770.47 1231.03 3771.12 1232.26C3771.76 1233.49 3774.02 1236.58 3776.14 1239.13C3778.25 1241.68 3782.43 1247.65 3785.41 1252.41C3791.54 1262.17 3817.53 1313.36 3826.99 1334.31L3833.22 1348.11L3830.61 1353.93C3829.18 1357.13 3828 1360.16 3828 1360.67C3828 1361.87 3817 1402.33 3816.55 1402.78C3816.36 1402.98 3814.25 1402.61 3811.86 1401.96C3801.05 1399.05 3787.36 1405.64 3781.79 1416.44C3779.1 1421.66 3779.65 1432.47 3782.91 1438.85C3786.21 1445.28 3792.83 1451.99 3798.5 1454.64C3802.92 1456.71 3804.99 1456.98 3816.3 1456.99C3825.6 1457 3829.87 1456.6 3831.93 1455.54C3835.95 1453.46 3840.25 1448.07 3839.46 1446.11C3839.1 1445.22 3838.4 1441.35 3837.9 1437.5C3837.3 1432.78 3835.69 1427.78 3833 1422.15C3830.78 1417.53 3829 1412.31 3829 1410.45C3829 1405.04 3839.86 1367.41 3841.04 1368.72C3841.43 1369.15 3844.79 1378.73 3848.51 1390C3855.49 1411.16 3862.56 1429.74 3867.86 1440.9L3870.91 1447.31L3866.6 1450.04C3860.43 1453.95 3854.28 1460.71 3852.39 1465.64C3850.05 1471.78 3850.84 1481.91 3854.23 1489.25C3857.71 1496.78 3865.85 1505.29 3872.83 1508.71C3880.19 1512.3 3894.57 1513.2 3901.64 1510.5C3915.39 1505.25 3921.18 1490.82 3916.16 1474.31C3913.7 1466.21 3907.61 1456.33 3902.83 1452.68C3898.28 1449.22 3891.12 1446.05 3887.76 1446.02C3885.43 1446 3884.58 1445.11 3881.96 1439.92C3875.37 1426.87 3870.58 1414.7 3859.44 1382.72C3853.08 1364.45 3846.47 1346.12 3844.76 1342C3840.22 1331.05 3820.84 1291.34 3809.67 1270.11C3804.35 1260 3800 1251.61 3800 1251.46C3800 1251.32 3810.01 1257.86 3822.25 1265.99C3834.49 1274.13 3851.7 1284.94 3860.5 1290.01C3877.79 1299.97 3913.56 1318.46 3926.54 1324.15L3934.58 1327.67L3942.47 1341.58C3946.81 1349.24 3952.69 1359.1 3955.53 1363.5C3958.37 1367.9 3963.51 1376.62 3966.96 1382.89L3973.23 1394.28L3969.74 1397.47C3961.49 1405.03 3957.18 1416.38 3958.96 1425.81C3961.76 1440.55 3973.13 1451 3986.39 1451C3991.56 1451 3993.83 1450.3 4002.94 1445.87C4015.43 1439.8 4016.41 1439.02 4019.84 1432.5C4022.05 1428.31 4022.48 1426.2 4022.48 1419.49C4022.48 1412.8 4022.03 1410.57 4019.74 1405.9C4013.95 1394.06 4004.69 1388.03 3992.29 1388.01L3985.08 1388L3980.47 1380.25C3977.93 1375.99 3970.93 1364.24 3964.91 1354.14C3958.89 1344.04 3954.66 1336.04 3955.52 1336.37C3956.37 1336.7 3964.37 1339.26 3973.29 1342.06C3982.2 1344.87 3997.46 1349.67 4007.2 1352.74L4024.9 1358.32L4024.33 1364.41C4022.84 1380.27 4032.36 1397.11 4046.83 1404.24C4052.59 1407.07 4054.41 1407.48 4061.45 1407.48C4071.11 1407.48 4076.03 1405.53 4083.61 1398.68C4091.21 1391.82 4093.48 1386.02 4093.49 1373.5C4093.5 1364.01 4093.33 1363.18 4090.09 1357.21C4085.98 1349.63 4079.91 1342.53 4075.64 1340.3C4067.21 1335.9 4056.78 1336.92 4043.47 1343.43L4034.79 1347.68L4016.14 1341.77C4005.89 1338.52 3988.95 1333.15 3978.5 1329.84C3957.02 1323.03 3943.89 1317.86 3926.5 1309.38L3914.5 1303.53L3921 1303.31C3929.07 1303.03 3953.22 1301.2 3966.36 1299.87C3971.79 1299.32 3978.97 1298.02 3982.32 1296.98C3985.67 1295.94 3988.49 1295.18 3988.58 1295.29C3988.68 1295.41 3989.71 1297.39 3990.87 1299.69C3993.89 1305.68 3999.42 1310.65 4005.24 1312.58C4018.61 1317.02 4037.25 1309.08 4044.5 1295.86C4051.65 1282.82 4045.72 1262.07 4032.13 1252.53C4028.24 1249.79 4027.08 1249.5 4020.16 1249.51C4013.36 1249.52 4011.79 1249.91 4006.21 1252.93C3993.65 1259.71 3987.89 1266.67 3986.53 1276.7C3985.86 1281.67 3985.64 1281.97 3981.66 1283.47C3973.44 1286.57 3963.15 1287.99 3941.5 1289.03C3915.06 1290.29 3905.39 1291.37 3900.76 1293.57L3897.29 1295.23L3883.16 1287.62C3859.24 1274.73 3845.74 1266.16 3793.5 1230.69C3764.32 1210.87 3751.12 1201.39 3741.7 1193.47C3732.87 1186.04 3730.59 1184.92 3726.89 1186.18ZM2116.87 1201.1C2051.23 1206.16 1986.4 1229.71 1936.23 1266.72C1876.9 1310.49 1829.76 1380.65 1812.09 1451.5C1800.81 1496.7 1801.15 1544.31 1813.08 1592.84C1827.83 1652.79 1855.59 1702.13 1897.62 1743.07C1922.32 1767.13 1949.14 1786.04 1981.65 1802.33C2000.39 1811.71 2006.05 1814.1 2023.95 1820.17C2091.58 1843.11 2161.37 1842.52 2236.33 1818.36C2311.81 1794.03 2372.51 1745.73 2413.94 1677C2437.86 1637.34 2451.66 1597.92 2457.48 1552.7C2459.78 1534.82 2459.54 1497.25 2456.99 1477.4C2444.04 1376.57 2395.12 1301.22 2308.5 1248.71C2248.59 1212.4 2182.71 1196.03 2116.87 1201.1ZM4025.01 1263.51C4028.77 1265.45 4032.71 1272.23 4034.1 1279.14C4034.99 1283.6 4034.92 1285.26 4033.68 1288.23C4031.96 1292.33 4023.74 1298.94 4020.31 1298.97C4019.1 1298.99 4017.84 1299.45 4017.5 1300C4016.42 1301.74 4011.42 1301.08 4007.9 1298.74C4002.93 1295.43 4000.5 1289.87 4000.5 1281.84C4000.5 1275.93 4000.84 1274.77 4003.51 1271.47C4006.86 1267.33 4015.97 1262 4019.69 1262C4021.01 1262 4023.41 1262.68 4025.01 1263.51ZM2171 1300.54C2195.54 1304.27 2214.43 1310.22 2237.5 1321.48C2261.08 1333 2281.08 1347.1 2298.46 1364.48C2315.22 1381.25 2326.27 1396.96 2337.03 1419.35C2352.11 1450.74 2359.21 1481.54 2359.3 1516C2359.35 1535.61 2357.78 1548.06 2352.8 1567.5C2343.62 1603.34 2322.14 1641.1 2294.57 1669.83C2266.25 1699.36 2232.26 1718.6 2189.5 1729.31C2165.22 1735.39 2155.69 1736.47 2126.5 1736.47C2103.64 1736.48 2098.93 1736.19 2087.5 1734.14C2025.94 1723.09 1969.54 1687.07 1937.75 1638.5C1929.02 1625.16 1920.64 1607.4 1915.1 1590.5C1892.88 1522.77 1901.6 1459.76 1941.46 1400C1970.69 1356.18 2008.26 1327.5 2058.02 1311.03C2071.51 1306.56 2093.81 1301.76 2109 1300.06C2114.22 1299.47 2120.08 1298.81 2122 1298.58C2129.23 1297.74 2160.89 1299 2171 1300.54ZM1574 1323.09C1454.9 1333.36 1363.09 1389.01 1304.45 1486.5C1266.62 1549.4 1253.33 1616.71 1264.54 1688.66C1275.21 1757.14 1304.16 1814.62 1351.14 1860.57C1389.17 1897.77 1435.9 1925.94 1487.01 1942.46C1582.81 1973.43 1700.54 1955.27 1789.96 1895.73C1805.62 1885.31 1824 1870.88 1824 1869C1824 1865.98 1803.25 1764.92 1802.47 1764.14C1802.06 1763.73 1801.4 1764.25 1783.66 1779.13C1735.72 1819.31 1685.44 1844.26 1635 1852.89C1606.79 1857.72 1569.88 1858.25 1546 1854.17C1473.3 1841.75 1411.28 1796.9 1382.79 1736.12C1362.95 1693.81 1356.55 1644.68 1365.08 1600.28C1372.4 1562.21 1393.68 1522.93 1423.85 1491.79C1450.28 1464.52 1478.68 1446.82 1517 1433.75C1572.64 1414.77 1638.1 1414.53 1713.86 1433.03C1725.05 1435.76 1734.55 1438 1734.96 1438C1735.38 1438 1734.4 1431.81 1732.79 1424.25C1731.18 1416.69 1726.35 1393.23 1722.04 1372.13C1717.74 1351.02 1713.68 1333.42 1713.02 1333.01C1709.65 1330.93 1667.43 1324.9 1643.44 1323.07C1627.48 1321.86 1588.22 1321.87 1574 1323.09ZM77 1347C74.457 1349.54 74.474 1349.83 77.643 1357.83C88.09 1384.19 104.253 1408.09 126.18 1429.57C146.015 1449.01 163.02 1461.03 187.703 1473.05C217.113 1487.38 260.618 1496.4 291 1494.47C306.365 1493.49 322.312 1490.99 324.25 1489.26C328.037 1485.87 325.115 1477 320.21 1477C319.225 1477 313.263 1477.72 306.96 1478.6C292.444 1480.63 262.089 1480.07 248 1477.51C216.001 1471.7 182.406 1457 156.503 1437.5C128.411 1416.35 103.5 1384.08 91.038 1352.72C89.774 1349.53 87.928 1346.5 86.936 1345.97C83.94 1344.36 79.138 1344.86 77 1347ZM4071.43 1354.07C4076.36 1358.4 4080.13 1366.63 4080.68 1374.24C4081.3 1382.94 4079.35 1386.36 4071 1391.23C4065.3 1394.55 4063.9 1394.96 4059.65 1394.54C4054.03 1394 4047.42 1390.44 4044.41 1386.35C4036.86 1376.09 4035.59 1365.56 4041.26 1360.23C4042.5 1359.06 4046.59 1356.5 4050.33 1354.55C4059.58 1349.73 4066.31 1349.57 4071.43 1354.07ZM3999.98 1402.75C4004.46 1405 4007.6 1409.77 4008.98 1416.4C4010.58 1424.13 4009.26 1427 4004.09 1427C4000.76 1427 3999.78 1427.51 3997.87 1430.25C3993.6 1436.39 3991.23 1438 3986.48 1438C3978.66 1438 3971.77 1429.99 3971.77 1420.88C3971.77 1407.71 3988.48 1396.97 3999.98 1402.75ZM3813.68 1417.57C3817.79 1420.7 3820.25 1424.48 3823.06 1431.94C3825.05 1437.21 3825.06 1437.48 3823.33 1440.69L3821.54 1444H3813.72C3805.42 1444 3802.02 1442.86 3798.37 1438.84C3792.73 1432.64 3791.36 1424.36 3795.17 1419.52C3799.87 1413.54 3807.36 1412.75 3813.68 1417.57ZM1085.5 1433.98C1046.41 1441.02 1042.51 1441.9 1042.67 1443.61C1042.88 1445.97 1057.46 1529.7 1081.12 1664.5C1084.98 1686.5 1091.23 1722.27 1095.01 1744C1107.18 1814.01 1113.95 1852.76 1120.01 1887C1123.26 1905.42 1129.13 1938.95 1133.04 1961.5C1136.95 1984.05 1141.12 2008.07 1142.3 2014.87C1143.59 2022.25 1144.97 2027.44 1145.74 2027.73C1147.31 2028.33 1235.15 2013.03 1236.37 2011.94C1237.16 2011.23 1231.84 1979.18 1215.46 1886C1210.52 1857.88 1195.04 1769.39 1190.01 1740.5C1188 1728.97 1173.68 1647.1 1164.99 1597.5C1162.2 1581.55 1157.23 1552.98 1153.93 1534C1145.76 1486.92 1140.33 1456.04 1137.43 1440.18C1136.09 1432.86 1135 1426.67 1135 1426.43C1135 1425.33 1125.49 1426.78 1085.5 1433.98ZM3894.92 1463.42C3902.5 1470.83 3907.23 1484.88 3903.51 1488.98C3902.55 1490.05 3901.47 1492.4 3901.1 1494.21C3900.47 1497.31 3900.11 1497.55 3894.88 1498.39C3883.65 1500.18 3874.65 1496.58 3868.87 1487.97C3861.17 1476.5 3863.51 1467.01 3875.46 1461.31C3883.05 1457.69 3889.8 1458.42 3894.92 1463.42ZM917.5 1466.01C899.35 1468.12 879.395 1470.4 873.154 1471.09C865.287 1471.95 861.645 1472.76 861.275 1473.73C860.981 1474.49 862.394 1489.38 864.416 1506.81C866.437 1524.24 871.427 1568.2 875.506 1604.5C879.584 1640.8 884.306 1682.43 885.999 1697C887.692 1711.57 891.535 1745.55 894.539 1772.5C897.543 1799.45 901.394 1833.34 903.098 1847.82C904.802 1862.29 905.929 1874.4 905.604 1874.73C905.278 1875.06 904.222 1874.64 903.256 1873.81C899.363 1870.46 871.086 1847.21 848 1828.37C834.525 1817.37 812.925 1799.7 800 1789.09C787.075 1778.49 753.55 1751.01 725.5 1728.03C697.45 1705.05 649.033 1665.38 617.906 1639.87C586.78 1614.37 539.305 1575.47 512.406 1553.44C485.508 1531.4 457.269 1508.23 449.653 1501.94C429.788 1485.53 431 1486.37 431 1489.07C431 1490.3 432.568 1504.85 434.484 1521.4C436.401 1537.96 440.431 1573.55 443.441 1600.5C446.45 1627.45 450.296 1661.43 451.986 1676C453.676 1690.57 458.401 1732.2 462.487 1768.5C466.573 1804.8 471.298 1846.43 472.988 1861C474.677 1875.57 479.2 1915.4 483.038 1949.5C495.569 2060.84 501.512 2111.84 502.01 2112.34C502.28 2112.6 520.275 2110.83 542 2108.39C563.725 2105.95 584.273 2103.68 587.662 2103.34C591.05 2103 594.337 2102.41 594.965 2102.02C595.798 2101.51 594.21 2084.84 589.094 2040.41C585.237 2006.91 580.691 1966.9 578.992 1951.5C577.294 1936.1 573.461 1902.35 570.475 1876.5C567.488 1850.65 562.333 1805.2 559.019 1775.5C555.705 1745.8 552.547 1717.94 552.003 1713.58C551.458 1709.22 551.162 1705.5 551.345 1705.32C551.528 1705.14 564.463 1715.42 580.089 1728.18C595.715 1740.93 615.475 1757.05 624 1764C632.525 1770.94 656.6 1790.57 677.5 1807.62C698.4 1824.67 731.475 1851.62 751 1867.52C770.525 1883.42 796.175 1904.33 808 1914.01C819.825 1923.68 836.925 1937.62 846 1945C865.847 1961.12 896.77 1986.32 930.032 2013.47C943.525 2024.49 965.069 2042.05 977.907 2052.5C990.744 2062.95 1006.62 2075.89 1013.18 2081.25C1019.74 2086.61 1025.37 2091 1025.7 2091C1026.42 2091 1025.93 2085.74 1022.01 2052C1020.32 2037.43 1015.59 1995.8 1011.51 1959.5C1007.42 1923.2 1002.92 1883.6 1001.5 1871.5C1000.09 1859.4 996.693 1829.48 993.962 1805C991.23 1780.52 985.384 1728.78 980.969 1690C976.554 1651.22 969.12 1585.75 964.447 1544.5C954.142 1453.52 955.351 1461.98 952.662 1462.09C951.473 1462.14 935.65 1463.91 917.5 1466.01ZM2203.5 1468.07C2193.05 1469.64 2173.7 1472.53 2160.5 1474.49C2130.72 1478.9 2129.22 1479.28 2128.36 1482.72C2127.52 1486.03 2129.67 1490.07 2133.15 1491.74C2135.06 1492.66 2137.13 1492.72 2141.12 1491.99C2144.08 1491.45 2164.87 1488.33 2187.32 1485.07C2209.77 1481.8 2228.78 1478.6 2229.57 1477.94C2231.05 1476.71 2231.47 1472.38 2230.38 1469.55C2229.77 1467.96 2224.89 1464.9 2223.3 1465.1C2222.86 1465.16 2213.95 1466.49 2203.5 1468.07ZM74.517 1500.39C73.132 1501.78 72 1504.05 72 1505.45C72 1506.84 74.212 1512.24 76.916 1517.44C103.654 1568.86 152.087 1603.93 211.967 1615.24C227.329 1618.14 258.405 1618.34 273.261 1615.63C286.151 1613.28 295.837 1610.46 298.136 1608.38C301.047 1605.74 300.66 1599.48 297.458 1597.38C295.051 1595.8 294.343 1595.85 284.208 1598.32C250.402 1606.53 215.779 1604.48 183 1592.32C159.158 1583.47 139.804 1570.86 120.423 1551.54C105.801 1536.96 98.659 1527.37 89.639 1510.19C83.892 1499.25 83.294 1498.48 80.267 1498.19C77.877 1497.96 76.376 1498.53 74.517 1500.39ZM2159.5 1567.65C2123.45 1570.49 2099.06 1574.83 2069.5 1583.65C2055.28 1587.9 2024.72 1600.04 2021.95 1602.55C2020.88 1603.52 2020 1605.39 2020 1606.7C2020 1609.85 2024.24 1614 2027.46 1614C2028.87 1614 2034.77 1611.97 2040.57 1609.49C2067.86 1597.84 2101.66 1588.68 2133 1584.46C2139.32 1583.61 2154.31 1582.64 2166.3 1582.31C2185.76 1581.77 2188.37 1581.5 2190.55 1579.78C2194.01 1577.06 2193.92 1571.87 2190.36 1569.07C2188 1567.21 2186.5 1567.02 2175.61 1567.17C2168.95 1567.26 2161.7 1567.48 2159.5 1567.65ZM3781 1589C3778.72 1591.28 3778.33 1596.74 3780.25 1599.25C3780.94 1600.14 3784.37 1601.83 3787.88 1602.99C3805.33 1608.78 3821.9 1619.59 3837.15 1635.14C3843 1641.11 3848.54 1646 3849.44 1646C3852.42 1646 3856 1641.39 3856 1637.56C3856 1634.44 3854.82 1632.8 3846.02 1623.66C3830.49 1607.54 3813.11 1596.33 3793.07 1589.52C3784.12 1586.48 3783.54 1586.46 3781 1589ZM3737.88 1658.37C3734.85 1659.88 3733.32 1664.16 3734.56 1667.66C3735.32 1669.82 3737.38 1671.09 3745.5 1674.45C3769.65 1684.42 3786.62 1695.65 3804.55 1713.5C3818.16 1727.05 3824.94 1735.75 3833.9 1751.15C3843.68 1767.95 3850.56 1786.05 3854.73 1805.96C3856.24 1813.19 3856.89 1814.65 3859.18 1815.93C3861.59 1817.28 3862.22 1817.27 3865.3 1815.79C3869.99 1813.56 3870.42 1810.87 3868 1799C3865.11 1784.82 3860.83 1772.52 3853.5 1757.29C3843.33 1736.15 3831.84 1719.82 3816.01 1703.99C3795.75 1683.72 3766.12 1665.1 3742.86 1658.01C3741.24 1657.51 3739.32 1657.65 3737.88 1658.37ZM3353.5 1759.67C3348.55 1759.82 3325.83 1760.42 3303 1761C3089.88 1766.47 2849.15 1789.48 2669.86 1821.51C2641.81 1826.53 2576.06 1839.27 2554.14 1843.94C2412.98 1874.02 2291.07 1904.5 2072 1964.49C1987.06 1987.75 1965.31 1993.65 1894.5 2012.58C1755.32 2049.81 1650.38 2075.4 1547 2097.35C1377.27 2133.37 1210.94 2160.14 1021.5 2181.94C951.86 2189.95 818.278 2202.52 729 2209.47C662.927 2214.61 634.624 2216.88 616 2218.53C606.925 2219.33 586.9 2221.11 571.5 2222.48C415.732 2236.31 324.54 2237.34 262 2225.98C240.487 2222.07 211.036 2213.71 191.224 2205.88C179.143 2201.1 171.623 2202.11 165.254 2209.36C158.858 2216.65 157.574 2229.44 162.312 2238.69C165.819 2245.53 169.665 2248.29 183.146 2253.6C205.191 2262.3 230.525 2268.97 260.042 2273.86C295.163 2279.68 307.497 2280.49 361 2280.49C411.794 2280.5 412.944 2280.45 504 2273.97C526.825 2272.34 570.925 2269.2 602 2266.99C656.656 2263.09 733.079 2257.1 780.5 2253C793.15 2251.9 811.6 2250.31 821.5 2249.46C915.618 2241.36 1031.09 2229.28 1109 2219.4C1151.67 2213.98 1216.71 2205.26 1235.5 2202.43C1343.25 2186.22 1410.68 2174.39 1506 2154.98C1669.42 2121.69 1884.98 2067.5 2204 1979.51C2454.54 1910.41 2610.34 1875.61 2770 1853.08C2824.35 1845.42 2843.42 1843.02 2844.15 1843.76C2844.55 1844.17 2846.2 1848.1 2847.82 1852.5C2853.48 1867.86 2866.21 1896.67 2876.99 1918.5C2919.67 2004.97 2975.07 2070.91 3043.5 2116.72C3112.88 2163.15 3193.74 2189.34 3291.5 2197.03C3312.85 2198.71 3368.94 2198.42 3392.5 2196.51C3528.93 2185.45 3645.62 2149.01 3717.54 2095.01C3764.18 2059.99 3792.31 2018.25 3803.15 1968C3805.15 1958.72 3805.42 1954.65 3805.43 1933C3805.45 1911.31 3805.2 1907.33 3803.22 1898.31C3793.23 1852.73 3767.21 1817.22 3730.12 1798.56C3708.24 1787.55 3687.76 1781.6 3650.5 1775.44C3578.08 1763.46 3508.76 1758.78 3410 1759.21C3383.88 1759.32 3358.45 1759.53 3353.5 1759.67ZM3490 1809.03C3504.57 1809.63 3526.21 1810.69 3538.09 1811.39L3559.67 1812.66L3568.09 1818.19C3607.19 1843.91 3624.67 1860.27 3636.67 1882.41C3642.44 1893.06 3645.15 1895.39 3651.81 1895.39C3657.8 1895.39 3663.38 1892.61 3667.4 1887.64C3669.87 1884.59 3670.48 1882.79 3670.81 1877.65C3671.18 1871.92 3670.86 1870.68 3667.21 1863.41C3661.68 1852.42 3652.34 1840.13 3641.62 1829.75C3634.79 1823.13 3633.09 1821 3634.66 1821C3637.35 1821 3661.09 1825.48 3672 1828.04C3684.19 1830.91 3698.4 1835.74 3706.5 1839.76C3732.89 1852.86 3750.22 1876.96 3757.03 1910.03C3758.86 1918.94 3759.11 1922.81 3758.72 1936C3758.33 1949.06 3757.79 1953.31 3755.25 1963C3747.67 1991.92 3732.19 2017.12 3707.33 2041C3659.29 2087.15 3573.52 2121.71 3459.44 2140.9C3380.39 2154.18 3299.98 2155.1 3236.06 2143.43C3146.68 2127.12 3074.96 2090.66 3014.88 2031C2995.82 2012.07 2987.04 2002.11 2972.6 1983.05C2951.75 1955.53 2935.39 1928.98 2918.86 1895.86C2909.33 1876.75 2892.45 1838.22 2893.26 1837.41C2893.58 1837.09 2959.69 1830.43 2996 1827.05C3100.38 1817.35 3226.72 1810.09 3334.5 1807.6C3360.57 1807 3463.34 1807.95 3490 1809.03ZM247.315 1855.02C243.164 1856.67 241.53 1863.39 244.545 1866.4C248.426 1870.28 271.62 1873.99 296.52 1874.7C322.403 1875.44 333.189 1874.6 336.72 1871.56C339.914 1868.82 340.244 1863.8 337.417 1860.97C335.591 1859.15 334.798 1859.11 320.741 1860.22C300.001 1861.85 270.51 1859.44 251 1854.52C250.175 1854.32 248.517 1854.54 247.315 1855.02ZM2987 1865.12C2985.62 1865.66 2983.07 1867.49 2981.32 1869.19C2973.03 1877.2 2974.66 1900.69 2984.72 1918C2991.42 1929.53 3015.07 1951.53 3024.1 1954.65C3035.95 1958.73 3048.94 1947.15 3046.59 1934.61C3045.59 1929.29 3042.08 1924.98 3033.47 1918.51C3023.3 1910.86 3018 1905.56 3014.45 1899.5C3011.94 1895.22 3011.6 1893.64 3011.5 1885.58C3011.36 1874.31 3008.84 1869.07 3001.8 1865.41C2998.72 1863.8 2990.71 1863.65 2987 1865.12ZM238.557 1913.22C236.412 1916.29 236.607 1920.61 239 1923C240.855 1924.86 242.333 1925 259.389 1925C275.771 1925 278.027 1924.8 280.056 1923.16C282.867 1920.88 283.092 1915.86 280.512 1913.01C278.806 1911.13 277.461 1911 259.402 1911C240.603 1911 240.074 1911.06 238.557 1913.22ZM3649.38 1943.92C3643.85 1946.43 3640.56 1950.81 3636.11 1961.62C3634.06 1966.58 3631.32 1972.42 3630.03 1974.57C3624.87 1983.21 3616.28 1990 3610.51 1990C3604.61 1990 3597.25 1994.73 3594.29 2000.42C3592.32 2004.21 3592.34 2011.83 3594.33 2015.68C3596.63 2020.12 3602.43 2024.8 3606.61 2025.59C3616.36 2027.42 3634.54 2020.54 3645.25 2010.98C3648.41 2008.15 3654 2001.33 3657.67 1995.82C3665.08 1984.68 3673.98 1965.28 3673.99 1960.22C3674.01 1952.91 3667.81 1945.15 3660.28 1943.06C3655.21 1941.65 3654.18 1941.73 3649.38 1943.92ZM3111.98 2013.25C3102.39 2018.1 3098.63 2029.72 3104.15 2037.47C3114.17 2051.56 3148.88 2068 3168.59 2068C3174.31 2068 3175.29 2067.68 3178.62 2064.76C3187.23 2057.2 3188.31 2046.19 3181.19 2038.66C3177.43 2034.69 3176.31 2034.23 3165.55 2032.06C3154.08 2029.75 3143.83 2025 3135.3 2018.05C3131.89 2015.26 3127.92 2012.54 3126.48 2011.99C3122.22 2010.37 3116.72 2010.85 3111.98 2013.25ZM2470.85 2024.7C2463.86 2029.03 2454.43 2048.68 2441.65 2085.5C2427.89 2125.12 2417.23 2162.39 2410.97 2192.76L2407.82 2208.02L2401.77 2213.76C2398.45 2216.92 2390.07 2226.25 2383.17 2234.5C2349.69 2274.51 2333 2290.78 2320.55 2295.53C2315.45 2297.48 2310.41 2296.96 2306.9 2294.12L2304.67 2292.31L2308.33 2286.27C2315.34 2274.75 2318.8 2262.2 2315.8 2259.2C2315.14 2258.54 2313.13 2258 2311.33 2258C2306.64 2258 2301.71 2262.78 2297.39 2271.53C2294.04 2278.31 2293.8 2279.39 2294.23 2285.69C2294.67 2292.14 2294.52 2292.74 2291.44 2297C2286.03 2304.46 2271.9 2317.53 2266 2320.51C2258.2 2324.46 2249.01 2324.98 2243.5 2321.77C2238.78 2319.03 2234.43 2311.73 2233.5 2305.01C2232.58 2298.34 2234.69 2287.38 2238.3 2280.05C2240.78 2275 2244.33 2270.76 2254.49 2260.66C2272.91 2242.36 2281.85 2236.69 2297.21 2233.57C2307.57 2231.46 2307.76 2231.49 2309.44 2235.5C2311.15 2239.61 2314.08 2240.15 2316.44 2236.78C2318.81 2233.4 2318.4 2229.46 2315.43 2227.12C2307.69 2221.04 2289.66 2224.81 2269.63 2236.7C2263.26 2240.48 2257.39 2245.63 2242.02 2260.9C2207.52 2295.19 2181.72 2317.93 2157.77 2335.15C2143.36 2345.5 2133.16 2350.84 2126.19 2351.66C2121.74 2352.19 2120.88 2351.97 2118.67 2349.76C2115.34 2346.43 2114.06 2341.55 2113.33 2329.4C2112.47 2315.19 2114.4 2300.5 2117.65 2296.64C2120.75 2292.95 2124 2286.62 2124 2284.26C2124 2281.09 2121.09 2278 2118.1 2278C2114.29 2278 2112.01 2280.86 2109.47 2288.79C2107.34 2295.45 2107.27 2295.53 2100.08 2299.66C2086.42 2307.5 2069.19 2311.36 2059.65 2308.71C2057.17 2308.02 2056.89 2307.57 2057.47 2305.25C2057.84 2303.78 2060.14 2299.93 2062.57 2296.69C2067.7 2289.87 2068.41 2285.06 2064.93 2280.64C2060.84 2275.44 2051.87 2278.43 2047.28 2286.53C2045.59 2289.51 2045.03 2292.12 2045.02 2297.01L2045 2303.52L2039.38 2308C2019.74 2323.68 1979.03 2372.75 1951.25 2414.26C1944.34 2424.58 1938.53 2432.87 1938.34 2432.67C1937.86 2432.19 1948.03 2391.42 1952.44 2376.15C1954.4 2369.36 1957.58 2361 1959.5 2357.56C1963.29 2350.79 1963.8 2347.91 1961.56 2346.05C1958.35 2343.39 1955.64 2345.23 1952.02 2352.5C1945.84 2364.93 1918.83 2389.95 1899.45 2401.19C1888.43 2407.59 1880.34 2410.3 1871 2410.74C1863.59 2411.09 1861.93 2410.84 1858.04 2408.82C1848.52 2403.87 1846.45 2391.61 1852.57 2376.5C1854.92 2370.69 1857 2367.85 1864.79 2359.81C1872.66 2351.7 1875.51 2349.48 1882.34 2346.17C1899.02 2338.09 1904.25 2336.64 1917.16 2336.57C1923.58 2336.53 1929.15 2336.83 1929.56 2337.23C1929.96 2337.63 1929.72 2338.63 1929.02 2339.47C1928 2340.71 1928.07 2341.46 1929.41 2343.5C1931.48 2346.67 1933.07 2346.65 1936.92 2343.41C1942.81 2338.46 1939.88 2331.45 1930.86 2328.91C1928.46 2328.23 1922.68 2327.67 1918 2327.67C1907.34 2327.65 1897.11 2330.39 1883.37 2336.94C1866.12 2345.15 1860.45 2349.76 1847.38 2366.12C1839.19 2376.38 1818.39 2397.54 1811.15 2402.99C1802.67 2409.37 1788.35 2416.55 1780 2418.63C1772.68 2420.45 1760.16 2419.93 1754.53 2417.58L1751.27 2416.22L1750.74 2403.36C1749.83 2381.37 1743.58 2370.03 1732.39 2370.01C1727.33 2370 1723.79 2372.56 1721.71 2377.75C1720.32 2381.23 1719.74 2381.64 1714.69 2382.7C1711.67 2383.33 1707.24 2385.1 1704.84 2386.62C1702.45 2388.14 1698.47 2390.46 1696 2391.77C1688.66 2395.66 1674.64 2406.83 1655.94 2423.68C1605.5 2469.11 1585.81 2484.37 1568.38 2491.53C1559.96 2495 1554.57 2494.82 1550.97 2490.97C1549.41 2489.3 1547.54 2486.26 1546.82 2484.22C1544.72 2478.28 1545.28 2456.74 1547.92 2442C1549.98 2430.51 1550.59 2428.77 1555.52 2420.5C1558.46 2415.55 1564.67 2404.82 1569.32 2396.66L1577.76 2381.81L1604.37 2372.93C1650.61 2357.51 1673.24 2347.63 1682.23 2338.96C1687.5 2333.89 1688.01 2332.01 1684.94 2328.94C1683.45 2327.45 1681.87 2326.97 1679.19 2327.19C1675.71 2327.48 1675.5 2327.7 1675.45 2331C1675.4 2334.28 1674.96 2334.74 1668.45 2338.35C1660.17 2342.94 1640.51 2351.67 1626.19 2357.11C1612.24 2362.42 1584.57 2370.92 1584.21 2370.01C1584.05 2369.6 1586.94 2363.7 1590.63 2356.88C1598.54 2342.28 1611.29 2315.97 1617.68 2301.07C1629.12 2274.39 1634.72 2251.5 1630.63 2248.11C1627.84 2245.79 1622.52 2247.58 1618.6 2252.15C1603.98 2269.23 1577.42 2322.44 1561.51 2366.5C1558.93 2373.65 1556.7 2379.62 1556.55 2379.77C1556.41 2379.92 1546.57 2382.93 1534.7 2386.45C1502.69 2395.95 1498.96 2397.96 1504 2403C1506.7 2405.7 1510.43 2405.52 1513.21 2402.56C1514.85 2400.81 1520.02 2398.74 1531.5 2395.22C1550.35 2389.43 1553 2388.74 1553 2389.62C1553 2389.98 1551.67 2394.6 1550.04 2399.89C1548.41 2405.17 1545.95 2414.22 1544.57 2420C1542.25 2429.75 1541.76 2430.79 1537.77 2434.5C1535.41 2436.7 1527.59 2445.03 1520.38 2453C1504.18 2470.93 1491.36 2483.33 1483.5 2488.66C1472.31 2496.24 1460.79 2501.13 1450.97 2502.45C1445.81 2503.14 1433.47 2501.63 1429.48 2499.81C1426.97 2498.67 1426.84 2498.28 1427.42 2493.89C1428.28 2487.43 1426.4 2472.16 1423.95 2465.59C1422.66 2462.16 1420.45 2458.84 1417.95 2456.58C1414.54 2453.49 1413.31 2453 1409.07 2453C1404.94 2453 1403.67 2453.48 1401.16 2456C1399.51 2457.65 1397.86 2460.35 1397.5 2462C1396.96 2464.44 1396.33 2465 1394.1 2465C1384.78 2465 1373.88 2473.36 1367.99 2485.01C1357.53 2505.74 1356.85 2538.35 1366.65 2549.99C1375.3 2560.27 1389.02 2557.97 1403.69 2543.76C1412.34 2535.38 1419.56 2524.31 1423.05 2514.05C1425.16 2507.86 1425.76 2506.97 1427.49 2507.45C1428.6 2507.76 1433.24 2508.76 1437.81 2509.67C1448.01 2511.71 1456.75 2510.66 1469.06 2505.92C1484.05 2500.13 1495.56 2491.04 1517.01 2468.04C1524.43 2460.08 1532.45 2451.53 1534.84 2449.04L1539.18 2444.5L1538.56 2448.5C1535.95 2465.4 1537 2482.08 1541.21 2490.48C1546.7 2501.43 1554.67 2504.37 1568.07 2500.39C1584.68 2495.46 1601.35 2483.25 1648 2441.9C1677.6 2415.66 1688.02 2406.69 1688.45 2407.11C1688.66 2407.33 1687.73 2411.33 1686.36 2416C1683.37 2426.22 1682.23 2442.65 1683.89 2451.5C1688.52 2476.18 1706.46 2480.56 1726.48 2461.89C1736.49 2452.56 1743.75 2440.57 1748.44 2425.65C1748.84 2424.37 1749.56 2424 1750.76 2424.46C1754.56 2425.92 1766.39 2428 1770.81 2427.98C1782.69 2427.94 1798.4 2422.17 1810.84 2413.29C1814.5 2410.68 1822.73 2403.47 1829.12 2397.26L1840.74 2385.98L1841.19 2393.78C1842.15 2410.36 1851.31 2419 1867.92 2419C1880.1 2419 1894.81 2413.48 1911.24 2402.74C1919.19 2397.54 1936.46 2383.57 1940.41 2379.14C1942.3 2377.01 1944.66 2376.12 1943.52 2377.97C1942.86 2379.04 1932.57 2421.92 1927.92 2443C1925.22 2455.23 1924.06 2458.28 1915.56 2475.5C1898.21 2510.63 1887.66 2542.46 1883.52 2572.19C1880.02 2597.27 1882.85 2611 1891.52 2611C1895.98 2611 1899.52 2607.19 1904.06 2597.5C1908.4 2588.24 1912.24 2573.39 1914.52 2557C1917.43 2536.05 1923.12 2502.89 1927.47 2481.55C1931.69 2460.85 1931.86 2460.33 1937.52 2450.5C1965.18 2402.46 2013.5 2340.69 2043.31 2315.24L2048.13 2311.13L2052.5 2314.21C2056.16 2316.79 2058.06 2317.37 2064.2 2317.76C2073.06 2318.33 2080.15 2316.69 2095.2 2310.59L2105.9 2306.25L2105.32 2315.87C2104.55 2328.81 2106.39 2345.21 2109.27 2350.95C2112.74 2357.86 2115.72 2359.5 2124.82 2359.5C2131.6 2359.5 2133.4 2359.07 2140.17 2355.84C2157.85 2347.39 2187.21 2324.56 2218.24 2295.1C2222.53 2291.03 2226.21 2287.88 2226.42 2288.1C2226.63 2288.32 2226.39 2290.97 2225.89 2294C2224 2305.44 2227.47 2318.48 2233.98 2324.37C2240.66 2330.39 2243.56 2331.48 2253 2331.49C2260.74 2331.5 2262.17 2331.18 2269 2327.86C2279.18 2322.93 2289.31 2313.96 2297.66 2302.49L2299.82 2299.53L2304.16 2302C2313.8 2307.47 2325.14 2304.54 2340.34 2292.64C2350.59 2284.6 2355.64 2279.26 2381.2 2249.45C2392.54 2236.22 2402.5 2224.83 2403.33 2224.14C2404.6 2223.09 2404.77 2223.18 2404.42 2224.69C2404.19 2225.69 2403.09 2230.49 2401.98 2235.36C2400.24 2243.04 2399.06 2245.58 2393.16 2254.41C2367.02 2293.49 2346.94 2344.53 2346.7 2372.5C2346.57 2387.93 2350.73 2397.47 2358.12 2398.64C2361.31 2399.15 2362.26 2398.76 2365.95 2395.42C2375.35 2386.94 2381.23 2368.53 2395.95 2301.5C2399.82 2283.9 2403.24 2268.4 2403.56 2267.06C2404.12 2264.69 2404.25 2264.75 2408.04 2269.19C2412.84 2274.8 2418.02 2277 2426.43 2277C2432.1 2277 2433.93 2276.44 2442.66 2272.04C2460.32 2263.14 2469.18 2255.51 2519.59 2205.79C2531.74 2193.81 2542.17 2184 2542.77 2184C2543.53 2184 2543.57 2184.98 2542.9 2187.25C2533.98 2217.32 2528.15 2247.01 2529.54 2255.26C2530.46 2260.67 2533.74 2262.69 2539.03 2261.11C2545.44 2259.19 2559.31 2249.15 2578.14 2232.81C2638.71 2180.25 2661.47 2161.06 2663.26 2161.02C2663.68 2161.01 2662.73 2163.59 2661.14 2166.75C2657.03 2174.91 2655.67 2182.12 2656.19 2193.1C2656.68 2203.52 2658.51 2208.35 2664.08 2213.92C2673.62 2223.47 2688.12 2224.22 2702.61 2215.94C2708.96 2212.3 2721.55 2200.74 2726.51 2193.99L2730.09 2189.11L2734.7 2191.55C2745.48 2197.28 2758.63 2192.98 2775.59 2178.16C2780.6 2173.79 2785.77 2168.89 2787.09 2167.27C2798.46 2153.35 2832.07 2115.09 2837.81 2109.54C2841.76 2105.71 2845 2101.84 2845 2100.95C2845 2100.05 2844.11 2098.5 2843.02 2097.52C2841.11 2095.79 2840.92 2095.82 2837.27 2098.6C2831.35 2103.1 2826.45 2108.34 2812.54 2125C2772.31 2173.2 2752.96 2189.87 2741.69 2186.02C2734.45 2183.55 2734.35 2183.05 2739.33 2174.33C2744.57 2165.17 2747 2158.45 2747 2153.09C2747 2149.81 2746.58 2149.07 2744.18 2148.08C2738.89 2145.88 2732.72 2150.64 2727.38 2161C2724.96 2165.7 2724.54 2167.71 2724.5 2174.77C2724.45 2182.99 2724.42 2183.08 2720.14 2188.43C2701.27 2212.09 2681.23 2219.91 2669.92 2208.03C2661.02 2198.68 2661.77 2179.76 2671.66 2164.11C2679.05 2152.42 2703.26 2131.6 2715.16 2126.69C2720.45 2124.51 2733.32 2121.79 2736.55 2122.17C2738.36 2122.39 2739.42 2123.16 2739.59 2124.4C2739.74 2125.44 2740.58 2127.01 2741.45 2127.88C2743.51 2129.94 2745.95 2128.5 2747.71 2124.18C2748.91 2121.24 2748.8 2120.81 2746.11 2117.8C2743.48 2114.86 2742.63 2114.54 2736.24 2114.18C2731.57 2113.92 2727.31 2114.35 2723.45 2115.47C2715.09 2117.9 2699.34 2126.07 2691.68 2131.94C2688.04 2134.72 2684.68 2137 2684.19 2137C2682.27 2137 2660.78 2151.98 2648.5 2161.89C2634.92 2172.83 2605.76 2197.88 2588.31 2213.59C2565.08 2234.49 2541.58 2252.99 2538.25 2253C2537.56 2253 2537 2252.16 2537 2251.13C2537 2247.55 2540.11 2231.4 2543.57 2217C2548.85 2195.05 2548.87 2195 2550.84 2195C2554.24 2195 2555 2192.86 2555 2183.37C2555 2176.32 2554.63 2173.77 2553.43 2172.57C2548.4 2167.55 2540.56 2173.47 2502.5 2211.02C2471.11 2241.99 2456.35 2255 2444.28 2262.33C2425.71 2273.61 2414.8 2270.86 2408.62 2253.35C2407.26 2249.49 2407.41 2248.18 2411.17 2230.47C2414.98 2212.48 2415.47 2211.05 2422.45 2197.09C2438.36 2165.32 2463.93 2105.95 2471.37 2083.5C2476.9 2066.8 2480.06 2051.86 2480.7 2039.29C2481.18 2029.86 2481.01 2027.67 2479.61 2025.54C2477.69 2022.6 2474.69 2022.31 2470.85 2024.7ZM3515.5 2028.11C3494.83 2034.77 3464.46 2040.45 3443.41 2041.59C3429.69 2042.33 3426.98 2043.17 3422.59 2048.03C3418.38 2052.69 3417.61 2055.26 3418.22 2062.59C3418.7 2068.42 3420.65 2071.91 3425.4 2075.44C3427.87 2077.28 3429.45 2077.48 3440.33 2077.33C3461.93 2077.03 3492.7 2072.21 3516.15 2065.46C3530.01 2061.47 3532.87 2060.14 3536.29 2056.06C3543.59 2047.4 3541.66 2034.73 3532.08 2028.27C3527.99 2025.52 3523.69 2025.48 3515.5 2028.11ZM2473.44 2039.25C2472.42 2047.72 2469.22 2063.01 2466.47 2072.59C2463.49 2082.95 2456.78 2099.95 2442.43 2133.5C2428.68 2165.65 2425.77 2172.1 2425.25 2171.59C2424.29 2170.62 2434.75 2132.19 2443.66 2104C2452.61 2075.69 2470.1 2034 2473.03 2034C2473.7 2034 2473.84 2035.88 2473.44 2039.25ZM2596.22 2039.75C2586.53 2044.98 2576.26 2057.58 2574 2067.02C2572.58 2072.91 2573.76 2075.29 2577.82 2074.8C2579.84 2074.56 2580.62 2073.54 2581.95 2069.45C2584.37 2062.01 2587.75 2057 2590.36 2057C2591.75 2057 2595.21 2054.32 2599.88 2049.62C2606.44 2043.01 2607.09 2042.03 2606.07 2040.12C2604.66 2037.49 2600.7 2037.34 2596.22 2039.75ZM3327.56 2052.57C3316.24 2056.52 3306 2057.59 3294.25 2056.03C3283.07 2054.55 3279.26 2054.97 3274.79 2058.15C3270.35 2061.31 3266.63 2070.01 3267.27 2075.71C3268.65 2087.95 3279.96 2092.68 3307 2092.35C3326.35 2092.11 3344.48 2086.77 3350.95 2079.41C3357.07 2072.43 3356.99 2063.47 3350.72 2056.34C3344.75 2049.53 3338.96 2048.59 3327.56 2052.57ZM1499 2242.69C1431.04 2249.8 1405.02 2254.11 1352.5 2266.96C1279.34 2284.86 1219.11 2309.3 1166.5 2342.41C1139.22 2359.57 1115.06 2379.95 1107.11 2392.49C1103.12 2398.78 1102.82 2404.51 1106.4 2406.14C1111.66 2408.53 1117.33 2403.51 1113.95 2399.44C1112.18 2397.31 1116.55 2391.49 1127.47 2381.45C1148.65 2361.97 1181.17 2341.31 1222.5 2321.06C1290.89 2287.56 1390.55 2261.38 1487.5 2251.45C1496.3 2250.55 1504.06 2249.35 1504.75 2248.78C1506.52 2247.33 1506.3 2243.33 1504.42 2242.61C1503.55 2242.27 1502.76 2242.07 1502.67 2242.16C1502.58 2242.25 1500.92 2242.49 1499 2242.69ZM1621.56 2267.25C1614.87 2288.5 1598.82 2323.97 1579.71 2359.69C1573.38 2371.54 1571.06 2375.02 1569.18 2375.49C1567.85 2375.82 1566.65 2375.96 1566.5 2375.8C1565.39 2374.53 1585.17 2327.62 1595.62 2306.74C1607.2 2283.61 1621.1 2260.03 1623.17 2260.01C1623.54 2260 1622.82 2263.26 1621.56 2267.25ZM2389.51 2295.66C2378.11 2350.25 2368.44 2382.48 2361.52 2388.98L2359.17 2391.19L2357.83 2388.84C2355.59 2384.9 2356.19 2362.6 2358.89 2349.5C2362.02 2334.38 2370 2310.89 2376.9 2296.5C2383.87 2281.94 2394.32 2264.81 2394.78 2267.16C2394.96 2268.07 2392.59 2280.9 2389.51 2295.66ZM2059 2287.69C2059 2288.81 2054.56 2294.99 2053.75 2294.99C2052.71 2295 2052.79 2294.43 2054.45 2290.47C2055.25 2288.56 2056.6 2287 2057.45 2287C2058.3 2287 2059 2287.31 2059 2287.69ZM2896.5 2334.66C2867.54 2338.1 2842.15 2345.06 2812 2357.81C2803.48 2361.42 2779.4 2372.89 2758.5 2383.29C2692.2 2416.3 2656.33 2432.67 2614.5 2449.04C2517.32 2487.05 2412.52 2514.22 2308 2528.48C2285.98 2531.48 2285.24 2531.64 2286.68 2533.08C2287.83 2534.23 2315.32 2530.51 2354.5 2523.9C2459.62 2506.16 2569.56 2473.12 2668.33 2429.58C2696.58 2417.13 2719.85 2405.96 2760.13 2385.54C2808.15 2361.18 2836.24 2349.67 2863.5 2343.18C2877.6 2339.83 2895.16 2337.01 2902.13 2336.99C2907.34 2336.97 2911 2336.1 2911 2334.88C2911 2334.04 2902.79 2333.91 2896.5 2334.66ZM1223.54 2345.1C1219.49 2348.66 1218.88 2352.33 1222.07 2354.04C1223.67 2354.89 1224.67 2354.79 1226.53 2353.57C1227.85 2352.71 1229.17 2352 1229.46 2352C1230.46 2352 1229.97 2362.45 1228.48 2373C1224.22 2403.13 1202.39 2498.28 1199.16 2500.79C1198.25 2501.5 1192.62 2505.28 1186.65 2509.2C1164.91 2523.46 1152.55 2539.41 1158.57 2545.43C1160.17 2547.02 1164.54 2547.5 1167.42 2546.39C1169.16 2545.72 1169.58 2541.48 1168 2540.5C1165.98 2539.25 1167.15 2537.2 1173.76 2530.43C1179.41 2524.64 1194.51 2513 1196.37 2513C1196.66 2513 1196.25 2515.14 1195.44 2517.75C1192.98 2525.78 1178.24 2583.81 1175.57 2596C1166.92 2635.51 1162.86 2671.23 1166.07 2679.69C1168.77 2686.81 1175.07 2689.1 1180.42 2684.89C1183.42 2682.53 1183.56 2679.37 1180.75 2677.61C1179.46 2676.8 1178.47 2676.85 1176.91 2677.83C1175.75 2678.55 1174.51 2678.85 1174.15 2678.49C1172.93 2677.27 1172.81 2659.05 1173.96 2650.27C1178.01 2619.56 1204.59 2508.25 1208.58 2505.32C1211.11 2503.47 1233.51 2493.6 1244.45 2489.53C1264.79 2481.95 1293.44 2474.55 1322.88 2469.29C1336.62 2466.83 1338.36 2466.3 1339.3 2464.24C1340.13 2462.43 1340 2461.57 1338.74 2460.31C1337.24 2458.81 1336.27 2458.82 1326.31 2460.43C1286.8 2466.8 1250.9 2477.06 1220.76 2490.61C1215.26 2493.08 1210.63 2494.96 1210.46 2494.79C1210.29 2494.62 1213.68 2480.3 1217.99 2462.97C1230.7 2411.92 1237.19 2377.06 1237.38 2358.84C1237.49 2347.79 1237.37 2347.04 1235.08 2344.59C1231.77 2341.06 1227.95 2341.23 1223.54 2345.1ZM13.903 2368.1C1.49 2369.3 0 2370.04 0 2374.95C0 2387.16 15.011 2412.52 35.844 2435.5C77.284 2481.21 124.606 2503.22 160.203 2493.34C165.462 2491.89 166.034 2491.89 167.559 2493.42C168.606 2494.46 170.563 2494.99 172.901 2494.85C176.229 2494.65 178.007 2495.76 191.045 2506.09C224.661 2532.73 254.52 2554.53 287.329 2576.38L305.159 2588.25L301.55 2591.95C297.384 2596.21 288.617 2600.78 278.285 2604.07L271.07 2606.37L265.225 2600.8C255.005 2591.05 243.106 2586.42 225.5 2585.35C209.346 2584.36 190.602 2587.79 145.5 2599.97C125.515 2605.37 71.407 2622.01 68.996 2623.5C67.534 2624.41 67.782 2629.54 69.486 2633.62C74.279 2645.09 93.728 2660.02 122.552 2674.35C141.52 2683.78 156.867 2687.37 178 2687.33C206.731 2687.27 232.371 2679.17 253 2663.64C266.136 2653.74 273.459 2642.67 274.83 2630.62L275.5 2624.74L286.064 2621.1C301.803 2615.69 310.404 2609.77 318 2599.12C319.479 2597.05 319.727 2597.16 335.5 2606.83C391.351 2641.1 463.502 2677.11 526.5 2702.16L548.5 2710.91L548.401 2714.29C548.268 2718.83 543.853 2728.21 538.709 2734.89C533.618 2741.5 520.254 2753.35 510.814 2759.62C504.296 2763.96 503.795 2764.12 502.062 2762.56C501.052 2761.64 497.86 2759.99 494.97 2758.9C479.203 2752.91 448.5 2760.2 411.629 2778.69C398.886 2785.08 393.833 2788.2 360.5 2810.26C328.418 2831.49 321.007 2838.57 321.007 2848C321.007 2855.86 323.443 2858.41 334.196 2861.83C359.677 2869.95 413.915 2875.89 437 2873.1C455.22 2870.9 472.393 2865.29 486.802 2856.84C495.429 2851.78 508.806 2837.9 513.246 2829.4C520.186 2816.11 521.91 2799.79 517.992 2784.47C516.887 2780.15 516.325 2776.33 516.742 2775.99C517.159 2775.64 522.388 2771.58 528.362 2766.96C549.089 2750.93 558.459 2737.84 559.684 2723.23C560.017 2719.25 560.619 2716 561.02 2716C561.422 2716 573.844 2720.07 588.625 2725.05C617.914 2734.92 649.573 2744.32 679.397 2751.99C711.537 2760.26 772.76 2772.61 805.947 2777.52C811.693 2778.37 816.592 2779.26 816.833 2779.5C818.367 2781.03 806.885 2794.06 792.082 2807.59L779.664 2818.93L776.075 2815.69C774.101 2813.9 770.914 2811.8 768.993 2811.01C767.072 2810.22 764.634 2808.49 763.574 2807.16C761.704 2804.81 761.377 2804.76 752.062 2805.4C725.939 2807.2 715.389 2811.74 693.496 2830.6C689.094 2834.4 679.644 2841.42 672.496 2846.21C665.348 2851.01 656.477 2857.31 652.782 2860.21C617.902 2887.66 611.357 2895.19 613.96 2904.85C616.172 2913.07 624.657 2917.93 644.175 2922.18C658.256 2925.24 694.478 2925.52 708.464 2922.68C749.74 2914.29 777.082 2893.92 784.573 2866C785.61 2862.14 786.432 2854.91 786.6 2848.18L786.883 2836.85L803.692 2819.61C821.04 2801.81 826 2795.1 828.159 2786.5C828.85 2783.75 829.489 2781.37 829.578 2781.21C829.668 2781.05 838.237 2782.05 848.621 2783.43C881.946 2787.84 923.249 2792.05 964 2795.18C985.072 2796.81 1046.35 2796.78 1068.5 2795.13C1109.6 2792.09 1139.24 2788.41 1191 2779.92C1229.94 2773.53 1295.1 2760.43 1296.2 2758.76C1298.36 2755.51 1292.76 2740.69 1288.91 2739.47C1287.14 2738.91 1286.15 2739.32 1284.56 2741.27C1282.68 2743.58 1279.61 2744.38 1249.5 2750.38C1181.55 2763.91 1121.16 2772.74 1069.5 2776.68C1046.3 2778.46 973.047 2779.15 965.75 2777.67L962 2776.91V2770.09C962 2756.35 956.832 2734.65 948.461 2713.24L944.046 2701.95L946.618 2690.22C949.779 2675.81 949.409 2665.79 945.082 2648.66C937.708 2619.46 923.533 2593.36 905.007 2574.85C896.477 2566.33 894.127 2564.61 884.923 2560.13C873.277 2554.46 864.308 2552.2 850 2551.33C829.748 2550.09 812 2556.05 812 2564.07C812 2567.6 822.522 2599.51 828.497 2614.1C839.223 2640.29 848.417 2655.36 861.017 2667.39C872.445 2678.31 883.619 2685.25 913.234 2699.79L938.968 2712.44L942.058 2720.97C947.683 2736.5 950.138 2748.38 950.728 2762.91L951.271 2776.31L940.386 2775.62C904.432 2773.33 827.307 2763.9 823.359 2761.32C821.599 2760.16 820.648 2760.05 819.659 2760.87C818.673 2761.69 812.654 2761.07 796.414 2758.49C759.114 2752.55 714.322 2743.84 712.963 2742.26C712.606 2741.84 711.755 2737.69 711.073 2733.04C708.549 2715.83 698.913 2687.73 689.83 2671.11L685.792 2663.72L688.146 2658.69C693.032 2648.25 690.626 2631.02 681.171 2608.71C673.518 2590.65 662.374 2575.51 646.734 2561.93C637.351 2553.78 631.848 2549.91 617 2541.02C603.494 2532.93 594.92 2526.85 587.78 2520.29C578.669 2511.92 576.823 2514.46 579.476 2531.69C589.647 2597.75 616.001 2651.02 645.792 2665.74C653.57 2669.59 656.793 2670.07 674.611 2670.1L678.721 2670.11L684.812 2682.81C691.98 2697.74 696.101 2709.66 698.94 2723.66C701.125 2734.43 701.54 2740 700.159 2740C698.267 2740 661.969 2730.72 643.398 2725.49C578.151 2707.12 508.813 2680.96 449.134 2652.19L436.905 2646.29L436.617 2625.9C436.369 2608.41 435.801 2602.01 432.629 2581.06C430.595 2567.62 429.157 2556.03 429.434 2555.31C429.711 2554.59 431.028 2554 432.362 2554C434.878 2554 435.987 2552.38 436.018 2548.67C436.028 2547.48 437.391 2544.5 439.046 2542.06C443.905 2534.89 445.351 2528.25 444.711 2516.04C443.84 2499.43 439.505 2485.16 428.75 2463.5C416.907 2439.65 408.913 2430.31 383.14 2410.2C362.192 2393.85 357.719 2390.71 350.759 2387.47C340.217 2382.56 339.077 2383.98 338.264 2403.04C337.003 2432.63 345.175 2468.62 359.999 2498.76C368.177 2515.39 374.834 2525.06 384.952 2535C393.568 2543.47 401.345 2548.46 410.942 2551.68C414.549 2552.89 417.808 2554.47 418.184 2555.19C418.56 2555.91 420.556 2566.62 422.618 2579C425.733 2597.69 426.38 2604.04 426.434 2616.5C426.489 2629.07 426.212 2632.03 424.724 2634.75C423.748 2636.54 422.219 2638 421.328 2638C419.44 2638 391.164 2623.02 366 2608.7C310.08 2576.86 252.969 2538.52 202.317 2498.82L187.135 2486.92L188.687 2483.21C191 2477.68 189.969 2462.79 186.562 2452.5C181.166 2436.2 169.058 2414.44 159.783 2404.38C154.857 2399.04 145.777 2392.38 138.26 2388.61C122.351 2380.62 75.524 2370.62 41.659 2367.99C27.971 2366.93 25.974 2366.93 13.903 2368.1ZM1735.06 2379.03C1737.89 2380.55 1740.77 2386.86 1741.95 2394.13C1743.22 2401.95 1743.31 2411 1742.12 2411C1740.36 2411 1733.35 2403.06 1730.5 2397.84C1726.93 2391.3 1726.46 2383.36 1729.44 2380.07C1731.56 2377.72 1732.34 2377.58 1735.06 2379.03ZM66.476 2388.01C85.574 2390.73 118.574 2397.57 129.504 2401.06C134.456 2402.64 140.537 2405.22 143.018 2406.8C157.138 2415.75 178 2451.13 178 2466.13C178 2468.66 177.213 2470.8 175.595 2472.69C173.379 2475.26 173.044 2475.36 171.345 2473.93C153.827 2459.2 132.817 2440.88 126.371 2434.71C120.529 2429.13 117.701 2428.75 117.161 2433.49C116.975 2435.13 117.353 2438.24 118.002 2440.4C119.291 2444.7 122.777 2448.28 142.221 2465.25C155.405 2476.75 155.388 2476.49 143.028 2477.63C125.574 2479.26 99.662 2470.91 78.869 2456.97C53.963 2440.26 26.149 2411.89 15.979 2392.81L12.914 2387.06L15.207 2386.55C20.747 2385.33 24.348 2385.18 38 2385.58C45.975 2385.82 58.789 2386.91 66.476 2388.01ZM1563.92 2389.75C1560.84 2394.9 1559.6 2396.09 1560.52 2393C1562.17 2387.48 1563.02 2386 1564.56 2386C1565.92 2386 1565.82 2386.57 1563.92 2389.75ZM1720.02 2391.75C1720.06 2394.46 1724.54 2404.72 1727.63 2409.19C1729.16 2411.4 1732.78 2414.85 1735.67 2416.86C1738.69 2418.95 1740.94 2421.28 1740.96 2422.33C1741.02 2425.28 1736 2437 1731.86 2443.58C1727.24 2450.92 1718.03 2459.92 1711.98 2463.01C1699.2 2469.53 1692.12 2462.53 1691.21 2442.45C1690.85 2434.4 1691.18 2430.73 1692.88 2423.99C1697.07 2407.45 1703.57 2396.89 1712.22 2392.58C1718.3 2389.55 1719.99 2389.37 1720.02 2391.75ZM373 2418.58C390.118 2430.82 400.753 2439.8 406.304 2446.71C425.926 2471.12 437.501 2500.63 434.023 2517.39C432.904 2522.78 428.031 2530.84 425.358 2531.72C424.68 2531.94 422.931 2528.12 421.052 2522.3C417.496 2511.29 406.342 2487.84 399.976 2478C390.745 2463.73 385.843 2459.8 384.409 2465.51C383.241 2470.16 385.098 2475.32 390.685 2482.96C393.719 2487.11 398.606 2495.45 401.546 2501.5C406.805 2512.32 414.334 2532.5 413.758 2534.23C413.207 2535.88 391.522 2521.95 385.717 2516.21C371.756 2502.42 362.206 2482.34 353.521 2448.5C347.849 2426.4 347.88 2414.6 353.622 2410.08C356.154 2408.09 356.253 2408.09 359.847 2409.92C361.856 2410.95 367.775 2414.84 373 2418.58ZM1411.93 2461.96C1415.5 2463.87 1418.28 2472.75 1418.79 2483.86C1419.26 2493.97 1419.22 2494.19 1417.27 2493.15C1414.05 2491.42 1409.46 2485.65 1406.5 2479.59C1404.28 2475.05 1403.84 2473.02 1404.22 2469.02C1404.92 2461.82 1407.4 2459.54 1411.93 2461.96ZM3024 2474.4C2998.22 2484.86 2961.45 2499.35 2921.5 2514.8C2869.9 2534.75 2857.7 2539.39 2827.74 2550.42C2636.55 2620.82 2503.36 2657.68 2345.39 2683.92C2257.57 2698.5 2182.95 2708.09 2029.5 2724.53C1877.08 2740.85 1819.79 2747.75 1738.5 2759.58C1658.81 2771.18 1569.45 2788.79 1500.09 2806.57C1473.67 2813.34 1470.94 2814.23 1472.87 2815.42C1473.49 2815.8 1478.16 2814.99 1483.25 2813.61C1563.88 2791.75 1668.05 2771.75 1783 2756.06C1853.08 2746.5 1875.74 2743.84 2035 2726.52C2149.96 2714.02 2169.31 2711.74 2239.5 2702.43C2472.82 2671.5 2638.9 2626.98 2904.5 2524.21C2997.74 2488.13 3046.27 2468.7 3046.75 2467.25C3047.46 2465.11 3045.08 2465.85 3024 2474.4ZM1397.01 2475.75C1397.03 2482.31 1405.24 2495.04 1412.69 2500.07C1415.34 2501.86 1417.64 2503.42 1417.8 2503.54C1418.47 2504.04 1413.63 2516.88 1410.67 2522.49C1406.47 2530.44 1395.21 2542.22 1388.72 2545.45C1376.87 2551.36 1370.66 2547.2 1367.93 2531.53C1364.2 2510.07 1375.09 2481.45 1389.5 2474.87C1395.27 2472.24 1397 2472.44 1397.01 2475.75ZM1915.9 2500.25C1912.85 2516.18 1909.21 2537.93 1907.05 2553.17C1905.91 2561.25 1903.85 2572.27 1902.48 2577.67C1899.96 2587.62 1893.87 2602 1892.17 2602C1890.87 2602 1890 2596.85 1890.01 2589.12C1890.02 2576.52 1894.63 2552.57 1901.11 2531.5C1905.38 2517.64 1916.07 2491 1917.36 2491C1917.54 2491 1916.88 2495.16 1915.9 2500.25ZM618.402 2557.92C642.483 2572.7 648.37 2578.11 661.567 2597.55C676.305 2619.27 682.302 2638.73 676.638 2646.48C675.495 2648.04 674.277 2646.8 665.299 2634.87C654.763 2620.87 645.671 2607.31 642.198 2600.43C638.387 2592.88 634.953 2592.38 633.462 2599.17C632.565 2603.25 637.856 2613.83 646.209 2624.65C649.669 2629.13 655.356 2636.47 658.848 2640.97C662.339 2645.46 664.909 2649.42 664.559 2649.77C664.209 2650.12 661.053 2650.59 657.544 2650.82C649.01 2651.36 642.153 2648.23 633.345 2639.78C619.008 2626.02 606.611 2602.27 598.491 2573C595.713 2562.98 591 2542.44 591 2540.34C591 2540.1 593.813 2541.9 597.25 2544.34C600.688 2546.78 610.206 2552.89 618.402 2557.92ZM874 2571.51C897.48 2578.71 918.237 2601.82 930.519 2634.45C934.081 2643.92 936.099 2655.4 936.087 2666.12C936.067 2682.68 935.642 2682.94 929.086 2670.35C917.183 2647.49 908.369 2636 891.667 2621.57C880.796 2612.17 876.058 2607.07 870.736 2599.01C866.611 2592.76 863.044 2593.97 863.015 2601.64C862.992 2608.07 869.141 2616.25 888.833 2636C898.43 2645.62 908.018 2655.79 910.141 2658.59C914.05 2663.75 929 2688.75 929 2690.14C929 2691.02 918.274 2686.24 901.685 2677.98C863.99 2659.21 849.023 2640.95 830.633 2591.29C827.535 2582.93 825 2575.63 825 2575.08C825 2573.57 828.829 2571.75 835 2570.31C842.659 2568.53 866.701 2569.27 874 2571.51ZM245.164 2603.45C251.94 2604.88 258 2607.42 258 2608.83C258 2609.71 226.857 2617.4 217 2618.96C207.606 2620.44 195.192 2620.18 190.5 2618.39C188.3 2617.56 185.825 2616.79 185 2616.69C182.799 2616.41 182.5 2623.4 184.489 2628.61C185.785 2632.01 187.031 2633.32 190.573 2635.03C200.255 2639.72 219.159 2638.65 245.748 2631.91C254.217 2629.76 261.564 2628 262.073 2628C264.665 2628 262.258 2631.96 255.75 2638.4C240.757 2653.24 222.76 2662.06 196 2667.69C184.24 2670.16 159.152 2670.15 150 2667.67C128.282 2661.78 111.532 2654.53 96.417 2644.47C91.825 2641.42 87.832 2638.54 87.545 2638.07C87.075 2637.31 102.852 2631.88 124.5 2625.34C151.758 2617.12 203.536 2604.64 218.5 2602.69C225.622 2601.76 239.008 2602.14 245.164 2603.45ZM487 2774.43C487 2775.22 454.68 2792.33 445.744 2796.27C440.928 2798.4 431.837 2801.4 425.543 2802.95C419.248 2804.49 412.613 2806.62 410.799 2807.68C407.946 2809.34 407.46 2810.21 407.204 2814.08C406.981 2817.46 407.483 2819.42 409.238 2822.03C411.898 2825.99 414.827 2826.81 418.253 2824.57C419.557 2823.72 425.771 2821.88 432.062 2820.49C440.69 2818.58 446.571 2816.47 456 2811.92C471.677 2804.35 488.346 2795.12 497.705 2788.84C501.668 2786.18 505.37 2784 505.932 2784C506.494 2784 507.684 2785.12 508.577 2786.48C509.846 2788.41 510.123 2790.87 509.845 2797.73C509.547 2805.1 508.973 2807.59 506.253 2813.35C498.318 2830.13 477.159 2844.04 447 2852.3L435.5 2855.46L408.5 2855.45C387.538 2855.44 378.938 2855.04 370.045 2853.66C353.823 2851.13 340.874 2848.01 341.611 2846.82C341.951 2846.27 346.79 2842.87 352.365 2839.27C357.939 2835.67 365.091 2830.73 368.258 2828.29C400.712 2803.36 444.201 2781.71 475 2775.17C479.785 2774.15 487 2773.71 487 2774.43ZM761.563 2824.1C761.938 2824.71 763.853 2825.88 765.82 2826.7L769.396 2828.19L766.948 2830.1C757.45 2837.52 744.569 2844.71 721 2855.72C711.04 2860.38 705.176 2863.69 704.594 2864.99C702.692 2869.24 707.948 2880 711.924 2880C713.823 2880 739.338 2868.94 750.955 2863.08C759.382 2858.83 770.36 2851.84 771.497 2850C773.035 2847.52 774.225 2849.19 773.618 2852.99C772.281 2861.35 768.93 2868 762.7 2874.66C749.085 2889.22 731.037 2898.45 705.116 2904.12C691.432 2907.11 657.313 2907.93 644.711 2905.57C639.877 2904.66 634.766 2903.48 633.352 2902.94C631.109 2902.09 630.955 2901.76 632.141 2900.32C635.596 2896.14 665.239 2873.43 681 2862.88C690.625 2856.44 701.982 2848.08 706.238 2844.31C719.256 2832.75 729.682 2827.66 746.607 2824.6C756.449 2822.83 760.687 2822.69 761.563 2824.1Z" fill="black"/>
</svg>
